<svg width="220.15998535156248px" height="294.4400146484375px" xmlns="http://www.w3.org/2000/svg" viewBox="139.92000732421877 -72.22000732421876 220.15998535156248 294.4400146484375" style="background: rgba(0, 0, 0, 0) none repeat scroll 0% 0%;" preserveAspectRatio="xMidYMid"><defs><filter id="editing-extrusion" x="-100%" y="-100%" width="300%" height="300%"><feFlood result="color1" flood-color="none"></feFlood><feConvolveMatrix order="1,1" divisor="1" kernelMatrix="1" in="SourceAlpha" result="extrude"></feConvolveMatrix><feComposite in="color1" in2="extrude" result="comp-extrude" operator="in"></feComposite><feOffset dx="0.5" dy="0.5" in="comp-extrude" result="offset-extrude"></feOffset><feMerge><feMergeNode in="offset-extrude"></feMergeNode><feMergeNode in="SourceGraphic"></feMergeNode></feMerge></filter></defs><g filter="url(#editing-extrusion)"><g transform="translate(177.2999973297119, 150)"><path d="M133.80-106L133.80-37.80L133.80-37.80Q133.80-28.60 131.20-21.10L131.20-21.10L131.20-21.10Q128.60-13.60 121.80-8.30L121.80-8.30L121.80-8.30Q115-3 103.10 0L103.10 0L103.10 0Q91.20 3 72.80 3L72.80 3L72.80 3Q54.40 3 42.50 0L42.50 0L42.50 0Q30.60-3 23.80-8.30L23.80-8.30L23.80-8.30Q17-13.60 14.30-21.10L14.30-21.10L14.30-21.10Q11.60-28.60 11.60-37.80L11.60-37.80L11.60-106L11.60-106Q11.60-115.20 14.30-122.70L14.30-122.70L14.30-122.70Q17-130.20 23.80-135.60L23.80-135.60L23.80-135.60Q30.60-141 42.50-144L42.50-144L42.50-144Q54.40-147 72.80-147L72.80-147L72.80-147Q91.20-147 103.10-144L103.10-144L103.10-144Q115-141 121.80-135.60L121.80-135.60L121.80-135.60Q128.60-130.20 131.20-122.70L131.20-122.70L131.20-122.70Q133.80-115.20 133.80-106L133.80-106ZM56.80-98.80L56.80-45L56.80-45Q56.80-41 59.70-38.30L59.70-38.30L59.70-38.30Q62.60-35.60 72.80-35.60L72.80-35.60L72.80-35.60Q83-35.60 85.90-38.30L85.90-38.30L85.90-38.30Q88.80-41 88.80-45L88.80-45L88.80-98.80L88.80-98.80Q88.80-102.60 85.90-105.30L85.90-105.30L85.90-105.30Q83-108 72.80-108L72.80-108L72.80-108Q62.60-108 59.70-105.30L59.70-105.30L59.70-105.30Q56.80-102.60 56.80-98.80L56.80-98.80Z" fill="#000000"></path></g></g><style>text {
  font-size: 64px;
  font-family: Arial Black;
  dominant-baseline: central;
  text-anchor: middle;
}</style></svg>