<svg width="185.91999511718748px" height="294.4400146484375px" xmlns="http://www.w3.org/2000/svg" viewBox="157.04000244140627 -72.22000732421876 185.91999511718748 294.4400146484375" style="background: rgba(0, 0, 0, 0) none repeat scroll 0% 0%;" preserveAspectRatio="xMidYMid"><defs><filter id="editing-extrusion" x="-100%" y="-100%" width="300%" height="300%"><feFlood result="color1" flood-color="none"></feFlood><feConvolveMatrix order="1,1" divisor="1" kernelMatrix="1" in="SourceAlpha" result="extrude"></feConvolveMatrix><feComposite in="color1" in2="extrude" result="comp-extrude" operator="in"></feComposite><feOffset dx="0.5" dy="0.5" in="comp-extrude" result="offset-extrude"></feOffset><feMerge><feMergeNode in="offset-extrude"></feMergeNode><feMergeNode in="SourceGraphic"></feMergeNode></feMerge></filter></defs><g filter="url(#editing-extrusion)"><g transform="translate(188.99999046325684, 147)"><path d="M105.20 0L105.20 0L16.80 0L16.80 0Q13 0 11.30-1.70L11.30-1.70L11.30-1.70Q9.60-3.40 9.60-7.20L9.60-7.20L9.60-31.40L9.60-31.40Q9.60-35.20 11.30-36.90L11.30-36.90L11.30-36.90Q13-38.60 16.80-38.60L16.80-38.60L39.20-38.60L39.20-105.40L20.80-105.40L20.80-105.40Q17-105.40 15.30-107.10L15.30-107.10L15.30-107.10Q13.60-108.80 13.60-112.60L13.60-112.60L13.60-136.80L13.60-136.80Q13.60-140.60 15.30-142.30L15.30-142.30L15.30-142.30Q17-144 20.80-144L20.80-144L78.80-144L78.80-144Q82.60-144 84.30-142.30L84.30-142.30L84.30-142.30Q86-140.60 86-136.80L86-136.80L86-38.60L105.20-38.60L105.20-38.60Q109-38.60 110.70-36.90L110.70-36.90L110.70-36.90Q112.40-35.20 112.40-31.40L112.40-31.40L112.40-7.20L112.40-7.20Q112.40-3.40 110.70-1.70L110.70-1.70L110.70-1.70Q109 0 105.20 0Z" fill="#000000"></path></g></g><style>text {
  font-size: 64px;
  font-family: Arial Black;
  dominant-baseline: central;
  text-anchor: middle;
}</style></svg>