<svg width="221px" height="294.4400146484375px" xmlns="http://www.w3.org/2000/svg" viewBox="139.5 -72.22000732421876 221 294.4400146484375" style="background: rgba(0, 0, 0, 0) none repeat scroll 0% 0%;" preserveAspectRatio="xMidYMid"><defs><filter id="editing-extrusion" x="-100%" y="-100%" width="300%" height="300%"><feFlood result="color1" flood-color="none"></feFlood><feConvolveMatrix order="1,1" divisor="1" kernelMatrix="1" in="SourceAlpha" result="extrude"></feConvolveMatrix><feComposite in="color1" in2="extrude" result="comp-extrude" operator="in"></feComposite><feOffset dx="0.5" dy="0.5" in="comp-extrude" result="offset-extrude"></feOffset><feMerge><feMergeNode in="offset-extrude"></feMergeNode><feMergeNode in="SourceGraphic"></feMergeNode></feMerge></filter></defs><g filter="url(#editing-extrusion)"><g transform="translate(177.00000286102295, 147)"><path d="M66-102L66-102L56.60-71.60L88-71.60L78.60-102L78.60-102Q77.80-103.80 76.90-104.60L76.90-104.60L76.90-104.60Q76-105.40 74.80-105.40L74.80-105.40L69.80-105.40L69.80-105.40Q68.60-105.40 67.70-104.60L67.70-104.60L67.70-104.60Q66.80-103.80 66-102ZM54.60-35.20L54.60-7.20L54.60-7.20Q54.60-3.40 52.90-1.70L52.90-1.70L52.90-1.70Q51.20 0 47.40 0L47.40 0L18 0L18 0Q14.20 0 12.50-1.70L12.50-1.70L12.50-1.70Q10.80-3.40 10.80-7.20L10.80-7.20L10.80-60L10.80-60Q10.80-66 12.70-73.80L12.70-73.80L12.70-73.80Q14.60-81.60 18.60-92L18.60-92L36-137.40L36-137.40Q37.20-140.80 39.70-142.40L39.70-142.40L39.70-142.40Q42.20-144 46.20-144L46.20-144L100-144L100-144Q103.80-144 106.30-142.40L106.30-142.40L106.30-142.40Q108.80-140.80 110-137.40L110-137.40L127.40-92L127.40-92Q131.40-81.60 133.30-73.80L133.30-73.80L133.30-73.80Q135.20-66 135.20-60L135.20-60L135.20-7.20L135.20-7.20Q135.20-3.40 133.50-1.70L133.50-1.70L133.50-1.70Q131.80 0 128 0L128 0L97.80 0L97.80 0Q93.80 0 91.90-1.70L91.90-1.70L91.90-1.70Q90-3.40 90-7.20L90-7.20L90-35.20L54.60-35.20Z" fill="#000000"></path></g></g><style>text {
  font-size: 64px;
  font-family: Arial Black;
  dominant-baseline: central;
  text-anchor: middle;
}</style></svg>