<svg width="219.64000244140624px" height="294.4400146484375px" xmlns="http://www.w3.org/2000/svg" viewBox="140.17999877929688 -72.22000732421876 219.64000244140624 294.4400146484375" style="background: rgba(0, 0, 0, 0) none repeat scroll 0% 0%;" preserveAspectRatio="xMidYMid"><defs><filter id="editing-extrusion" x="-100%" y="-100%" width="300%" height="300%"><feFlood result="color1" flood-color="none"></feFlood><feConvolveMatrix order="1,1" divisor="1" kernelMatrix="1" in="SourceAlpha" result="extrude"></feConvolveMatrix><feComposite in="color1" in2="extrude" result="comp-extrude" operator="in"></feComposite><feOffset dx="0.5" dy="0.5" in="comp-extrude" result="offset-extrude"></feOffset><feMerge><feMergeNode in="offset-extrude"></feMergeNode><feMergeNode in="SourceGraphic"></feMergeNode></feMerge></filter></defs><g filter="url(#editing-extrusion)"><g transform="translate(174.79999828338623, 147)"><path d="M97.80 0L97.80 0L21 0L21 0Q17.20 0 15.50-1.70L15.50-1.70L15.50-1.70Q13.80-3.40 13.80-7.20L13.80-7.20L13.80-136.80L13.80-136.80Q13.80-140.60 15.50-142.30L15.50-142.30L15.50-142.30Q17.20-144 21-144L21-144L84.80-144L84.80-144Q104.40-144 113.80-136.50L113.80-136.50L113.80-136.50Q123.20-129 123.20-113.40L123.20-113.40L123.20-103.80L123.20-103.80Q123.20-95.40 120.30-90.10L120.30-90.10L120.30-90.10Q117.40-84.80 111.40-82.20L111.40-82.20L111.40-82.20Q124.20-81 130.40-73.40L130.40-73.40L130.40-73.40Q136.60-65.80 136.60-51.20L136.60-51.20L136.60-32.80L136.60-32.80Q136.60-16 127.10-8L127.10-8L127.10-8Q117.60 0 97.80 0ZM75.80-110L58.80-110L58.80-88.40L75.80-88.40L75.80-88.40Q79.60-88.40 81.50-90.40L81.50-90.40L81.50-90.40Q83.40-92.40 83.40-96.40L83.40-96.40L83.40-102L83.40-102Q83.40-106 81.50-108L81.50-108L81.50-108Q79.60-110 75.80-110L75.80-110ZM84.80-57.60L58.80-57.60L58.80-34L84.80-34L84.80-34Q88.60-34 90.50-36L90.50-36L90.50-36Q92.40-38 92.40-42L92.40-42L92.40-49.80L92.40-49.80Q92.40-53.80 90.50-55.70L90.50-55.70L90.50-55.70Q88.60-57.60 84.80-57.60L84.80-57.60Z" fill="#000000"></path></g></g><style>text {
  font-size: 64px;
  font-family: Arial Black;
  dominant-baseline: central;
  text-anchor: middle;
}</style></svg>