<svg width="193.25999755859374px" height="294.4400146484375px" xmlns="http://www.w3.org/2000/svg" viewBox="153.37000122070313 -72.22000732421876 193.25999755859374 294.4400146484375" style="background: rgba(0, 0, 0, 0) none repeat scroll 0% 0%;" preserveAspectRatio="xMidYMid"><defs><filter id="editing-extrusion" x="-100%" y="-100%" width="300%" height="300%"><feFlood result="color1" flood-color="none"></feFlood><feConvolveMatrix order="1,1" divisor="1" kernelMatrix="1" in="SourceAlpha" result="extrude"></feConvolveMatrix><feComposite in="color1" in2="extrude" result="comp-extrude" operator="in"></feComposite><feOffset dx="0.5" dy="0.5" in="comp-extrude" result="offset-extrude"></feOffset><feMerge><feMergeNode in="offset-extrude"></feMergeNode><feMergeNode in="SourceGraphic"></feMergeNode></feMerge></filter></defs><g filter="url(#editing-extrusion)"><g transform="translate(185.79999351501465, 147)"><path d="M109.60 0L109.60 0L60.80 0L60.80 0Q35.80 0 23.70-10L23.70-10L23.70-10Q11.60-20 11.60-40.80L11.60-40.80L11.60-103L11.60-103Q11.60-123.80 23.70-133.90L23.70-133.90L23.70-133.90Q35.80-144 60.80-144L60.80-144L109.60-144L109.60-144Q113.40-144 115.10-142.30L115.10-142.30L115.10-142.30Q116.80-140.60 116.80-136.80L116.80-136.80L116.80-112.60L116.80-112.60Q116.80-108.80 115.10-107.10L115.10-107.10L115.10-107.10Q113.40-105.40 109.60-105.40L109.60-105.40L69.40-105.40L69.40-105.40Q63.20-105.40 60.20-102.90L60.20-102.90L60.20-102.90Q57.20-100.40 57.20-95.40L57.20-95.40L57.20-47.80L57.20-47.80Q57.20-42.80 60.20-40.50L60.20-40.50L60.20-40.50Q63.20-38.20 69.40-38.20L69.40-38.20L109.60-38.20L109.60-38.20Q113.40-38.20 115.10-36.50L115.10-36.50L115.10-36.50Q116.80-34.80 116.80-31L116.80-31L116.80-7.20L116.80-7.20Q116.80-3.40 115.10-1.70L115.10-1.70L115.10-1.70Q113.40 0 109.60 0Z" fill="#000000"></path></g></g><style>text {
  font-size: 64px;
  font-family: Arial Black;
  dominant-baseline: central;
  text-anchor: middle;
}</style></svg>