<svg width="225.34000244140626px" height="294.4400146484375px" xmlns="http://www.w3.org/2000/svg" viewBox="137.3299987792969 -72.22000732421876 225.34000244140626 294.4400146484375" style="background: rgba(0, 0, 0, 0) none repeat scroll 0% 0%;" preserveAspectRatio="xMidYMid"><defs><filter id="editing-extrusion" x="-100%" y="-100%" width="300%" height="300%"><feFlood result="color1" flood-color="none"></feFlood><feConvolveMatrix order="1,1" divisor="1" kernelMatrix="1" in="SourceAlpha" result="extrude"></feConvolveMatrix><feComposite in="color1" in2="extrude" result="comp-extrude" operator="in"></feComposite><feOffset dx="0.5" dy="0.5" in="comp-extrude" result="offset-extrude"></feOffset><feMerge><feMergeNode in="offset-extrude"></feMergeNode><feMergeNode in="SourceGraphic"></feMergeNode></feMerge></filter></defs><g filter="url(#editing-extrusion)"><g transform="translate(174.2999906539917, 147)"><path d="M88.40 0L88.40 0L21 0L21 0Q17.20 0 15.50-1.70L15.50-1.70L15.50-1.70Q13.80-3.40 13.80-7.20L13.80-7.20L13.80-136.80L13.80-136.80Q13.80-140.60 15.50-142.30L15.50-142.30L15.50-142.30Q17.20-144 21-144L21-144L88.40-144L88.40-144Q113.40-144 125.50-134L125.50-134L125.50-134Q137.60-124 137.60-103.20L137.60-103.20L137.60-40.80L137.60-40.80Q137.60-20 125.50-10L125.50-10L125.50-10Q113.40 0 88.40 0ZM83-105.80L59.20-105.80L59.20-37.80L83-37.80L83-37.80Q87.80-37.80 90.10-40.20L90.10-40.20L90.10-40.20Q92.40-42.60 92.40-47.60L92.40-47.60L92.40-96.20L92.40-96.20Q92.40-101.20 90.10-103.50L90.10-103.50L90.10-103.50Q87.80-105.80 83-105.80L83-105.80Z" fill="#000000"></path></g></g><style>text {
  font-size: 64px;
  font-family: Arial Black;
  dominant-baseline: central;
  text-anchor: middle;
}</style></svg>