<svg width="200.339990234375px" height="294.4400146484375px" xmlns="http://www.w3.org/2000/svg" viewBox="149.8300048828125 -72.22000732421876 200.339990234375 294.4400146484375" style="background: rgba(0, 0, 0, 0) none repeat scroll 0% 0%;" preserveAspectRatio="xMidYMid"><defs><filter id="editing-extrusion" x="-100%" y="-100%" width="300%" height="300%"><feFlood result="color1" flood-color="none"></feFlood><feConvolveMatrix order="1,1" divisor="1" kernelMatrix="1" in="SourceAlpha" result="extrude"></feConvolveMatrix><feComposite in="color1" in2="extrude" result="comp-extrude" operator="in"></feComposite><feOffset dx="0.5" dy="0.5" in="comp-extrude" result="offset-extrude"></feOffset><feMerge><feMergeNode in="offset-extrude"></feMergeNode><feMergeNode in="SourceGraphic"></feMergeNode></feMerge></filter></defs><g filter="url(#editing-extrusion)"><g transform="translate(182.60000896453857, 147)"><path d="M113.80 0L113.80 0L21 0L21 0Q17.20 0 15.50-1.70L15.50-1.70L15.50-1.70Q13.80-3.40 13.80-7.20L13.80-7.20L13.80-136.80L13.80-136.80Q13.80-140.60 15.50-142.30L15.50-142.30L15.50-142.30Q17.20-144 21-144L21-144L113.80-144L113.80-144Q117.60-144 119.30-142.30L119.30-142.30L119.30-142.30Q121-140.60 121-136.80L121-136.80L121-113.40L121-113.40Q121-109.60 119.30-107.90L119.30-107.90L119.30-107.90Q117.60-106.20 113.80-106.20L113.80-106.20L58.60-106.20L58.60-90.80L97.60-90.80L97.60-90.80Q101.40-90.80 103.10-89.10L103.10-89.10L103.10-89.10Q104.80-87.40 104.80-83.60L104.80-83.60L104.80-62.20L104.80-62.20Q104.80-58.40 103.10-56.70L103.10-56.70L103.10-56.70Q101.40-55 97.60-55L97.60-55L58.60-55L58.60-37.80L113.80-37.80L113.80-37.80Q117.60-37.80 119.30-36.10L119.30-36.10L119.30-36.10Q121-34.40 121-30.60L121-30.60L121-7.20L121-7.20Q121-3.40 119.30-1.70L119.30-1.70L119.30-1.70Q117.60 0 113.80 0Z" fill="#000000"></path></g></g><style>text {
  font-size: 64px;
  font-family: Arial Black;
  dominant-baseline: central;
  text-anchor: middle;
}</style></svg>