<svg width="190.54000244140624px" height="294.4400146484375px" xmlns="http://www.w3.org/2000/svg" viewBox="154.72999877929686 -72.22000732421876 190.54000244140624 294.4400146484375" style="background: rgba(0, 0, 0, 0) none repeat scroll 0% 0%;" preserveAspectRatio="xMidYMid"><defs><filter id="editing-extrusion" x="-100%" y="-100%" width="300%" height="300%"><feFlood result="color1" flood-color="none"></feFlood><feConvolveMatrix order="1,1" divisor="1" kernelMatrix="1" in="SourceAlpha" result="extrude"></feConvolveMatrix><feComposite in="color1" in2="extrude" result="comp-extrude" operator="in"></feComposite><feOffset dx="0.5" dy="0.5" in="comp-extrude" result="offset-extrude"></feOffset><feMerge><feMergeNode in="offset-extrude"></feMergeNode><feMergeNode in="SourceGraphic"></feMergeNode></feMerge></filter></defs><g filter="url(#editing-extrusion)"><g transform="translate(184.39999675750732, 147)"><path d="M52 0L52 0L21 0L21 0Q17.20 0 15.50-1.70L15.50-1.70L15.50-1.70Q13.80-3.40 13.80-7.20L13.80-7.20L13.80-136.80L13.80-136.80Q13.80-140.60 15.50-142.30L15.50-142.30L15.50-142.30Q17.20-144 21-144L21-144L110.20-144L110.20-144Q114-144 115.70-142.30L115.70-142.30L115.70-142.30Q117.40-140.60 117.40-136.80L117.40-136.80L117.40-113L117.40-113Q117.40-109.20 115.70-107.50L115.70-107.50L115.70-107.50Q114-105.80 110.20-105.80L110.20-105.80L59.20-105.80L59.20-85L94-85L94-85Q97.80-85 99.50-83.30L99.50-83.30L99.50-83.30Q101.20-81.60 101.20-77.80L101.20-77.80L101.20-53.80L101.20-53.80Q101.20-50 99.50-48.30L99.50-48.30L99.50-48.30Q97.80-46.60 94-46.60L94-46.60L59.20-46.60L59.20-7.20L59.20-7.20Q59.20-3.40 57.50-1.70L57.50-1.70L57.50-1.70Q55.80 0 52 0Z" fill="#000000"></path></g></g><style>text {
  font-size: 64px;
  font-family: Arial Black;
  dominant-baseline: central;
  text-anchor: middle;
}</style></svg>