<svg width="215.03999023437498px" height="294.4400146484375px" xmlns="http://www.w3.org/2000/svg" viewBox="142.48000488281252 -72.22000732421876 215.03999023437498 294.4400146484375" style="background: rgba(0, 0, 0, 0) none repeat scroll 0% 0%;" preserveAspectRatio="xMidYMid"><defs><filter id="editing-extrusion" x="-100%" y="-100%" width="300%" height="300%"><feFlood result="color1" flood-color="none"></feFlood><feConvolveMatrix order="1,1" divisor="1" kernelMatrix="1" in="SourceAlpha" result="extrude"></feConvolveMatrix><feComposite in="color1" in2="extrude" result="comp-extrude" operator="in"></feComposite><feOffset dx="0.5" dy="0.5" in="comp-extrude" result="offset-extrude"></feOffset><feMerge><feMergeNode in="offset-extrude"></feMergeNode><feMergeNode in="SourceGraphic"></feMergeNode></feMerge></filter></defs><g filter="url(#editing-extrusion)"><g transform="translate(178.69999885559082, 147)"><path d="M123.80 0L123.80 0L60.80 0L60.80 0Q35.80 0 23.70-10L23.70-10L23.70-10Q11.60-20 11.60-40.80L11.60-40.80L11.60-103.20L11.60-103.20Q11.60-124 23.70-134L23.70-134L23.70-134Q35.80-144 60.80-144L60.80-144L110.80-144L110.80-144Q114.60-144 116.30-142.30L116.30-142.30L116.30-142.30Q118-140.60 118-136.80L118-136.80L118-112.60L118-112.60Q118-108.80 116.30-107.10L116.30-107.10L116.30-107.10Q114.60-105.40 110.80-105.40L110.80-105.40L69.20-105.40L69.20-105.40Q63-105.40 60-102.90L60-102.90L60-102.90Q57-100.40 57-95.40L57-95.40L57-47.60L57-47.60Q57-42.60 59.30-40.20L59.30-40.20L59.30-40.20Q61.60-37.80 66.20-37.80L66.20-37.80L85.60-37.80L85.60-69L85.60-69Q85.60-72.80 87.30-74.50L87.30-74.50L87.30-74.50Q89-76.20 92.80-76.20L92.80-76.20L123.80-76.20L123.80-76.20Q127.60-76.20 129.30-74.50L129.30-74.50L129.30-74.50Q131-72.80 131-69L131-69L131-7.20L131-7.20Q131-3.40 129.30-1.70L129.30-1.70L129.30-1.70Q127.60 0 123.80 0Z" fill="#000000"></path></g></g><style>text {
  font-size: 64px;
  font-family: Arial Black;
  dominant-baseline: central;
  text-anchor: middle;
}</style></svg>