<svg width="228.90001220703124px" height="294.4400146484375px" xmlns="http://www.w3.org/2000/svg" viewBox="135.54999389648438 -72.22000732421876 228.90001220703124 294.4400146484375" style="background: rgba(0, 0, 0, 0) none repeat scroll 0% 0%;" preserveAspectRatio="xMidYMid"><defs><filter id="editing-extrusion" x="-100%" y="-100%" width="300%" height="300%"><feFlood result="color1" flood-color="none"></feFlood><feConvolveMatrix order="1,1" divisor="1" kernelMatrix="1" in="SourceAlpha" result="extrude"></feConvolveMatrix><feComposite in="color1" in2="extrude" result="comp-extrude" operator="in"></feComposite><feOffset dx="0.5" dy="0.5" in="comp-extrude" result="offset-extrude"></feOffset><feMerge><feMergeNode in="offset-extrude"></feMergeNode><feMergeNode in="SourceGraphic"></feMergeNode></feMerge></filter></defs><g filter="url(#editing-extrusion)"><g transform="translate(174.10000896453857, 147)"><path d="M52 0L52 0L21 0L21 0Q17.20 0 15.50-1.70L15.50-1.70L15.50-1.70Q13.80-3.40 13.80-7.20L13.80-7.20L13.80-136.80L13.80-136.80Q13.80-140.60 15.50-142.30L15.50-142.30L15.50-142.30Q17.20-144 21-144L21-144L52-144L52-144Q55.80-144 57.50-142.30L57.50-142.30L57.50-142.30Q59.20-140.60 59.20-136.80L59.20-136.80L59.20-93.40L92.60-93.40L92.60-136.80L92.60-136.80Q92.60-140.60 94.30-142.30L94.30-142.30L94.30-142.30Q96-144 99.80-144L99.80-144L130.80-144L130.80-144Q134.60-144 136.30-142.30L136.30-142.30L136.30-142.30Q138-140.60 138-136.80L138-136.80L138-7.20L138-7.20Q138-3.40 136.30-1.70L136.30-1.70L136.30-1.70Q134.60 0 130.80 0L130.80 0L99.80 0L99.80 0Q96 0 94.30-1.70L94.30-1.70L94.30-1.70Q92.60-3.40 92.60-7.20L92.60-7.20L92.60-51.60L59.20-51.60L59.20-7.20L59.20-7.20Q59.20-3.40 57.50-1.70L57.50-1.70L57.50-1.70Q55.80 0 52 0Z" fill="#000000"></path></g></g><style>text {
  font-size: 64px;
  font-family: Arial Black;
  dominant-baseline: central;
  text-anchor: middle;
}</style></svg>