<svg width="186.99998779296874px" height="294.4400146484375px" xmlns="http://www.w3.org/2000/svg" viewBox="156.50000610351563 -72.22000732421876 186.99998779296874 294.4400146484375" style="background: rgba(0, 0, 0, 0) none repeat scroll 0% 0%;" preserveAspectRatio="xMidYMid"><defs><filter id="editing-extrusion" x="-100%" y="-100%" width="300%" height="300%"><feFlood result="color1" flood-color="none"></feFlood><feConvolveMatrix order="1,1" divisor="1" kernelMatrix="1" in="SourceAlpha" result="extrude"></feConvolveMatrix><feComposite in="color1" in2="extrude" result="comp-extrude" operator="in"></feComposite><feOffset dx="0.5" dy="0.5" in="comp-extrude" result="offset-extrude"></feOffset><feMerge><feMergeNode in="offset-extrude"></feMergeNode><feMergeNode in="SourceGraphic"></feMergeNode></feMerge></filter></defs><g filter="url(#editing-extrusion)"><g transform="translate(189.60000038146973, 147)"><path d="M103 0L17.80 0L17.80 0Q14 0 12.30-1.70L12.30-1.70L12.30-1.70Q10.60-3.40 10.60-7.20L10.60-7.20L10.60-31L10.60-31Q10.60-34.80 12.30-36.50L12.30-36.50L12.30-36.50Q14-38.20 17.80-38.20L17.80-38.20L37.60-38.20L37.60-105.40L17.80-105.40L17.80-105.40Q14-105.40 12.30-107.10L12.30-107.10L12.30-107.10Q10.60-108.80 10.60-112.60L10.60-112.60L10.60-136.80L10.60-136.80Q10.60-140.60 12.30-142.30L12.30-142.30L12.30-142.30Q14-144 17.80-144L17.80-144L103-144L103-144Q106.80-144 108.50-142.30L108.50-142.30L108.50-142.30Q110.20-140.60 110.20-136.80L110.20-136.80L110.20-112.60L110.20-112.60Q110.20-108.80 108.50-107.10L108.50-107.10L108.50-107.10Q106.80-105.40 103-105.40L103-105.40L83.60-105.40L83.60-38.20L103-38.20L103-38.20Q106.80-38.20 108.50-36.50L108.50-36.50L108.50-36.50Q110.20-34.80 110.20-31L110.20-31L110.20-7.20L110.20-7.20Q110.20-3.40 108.50-1.70L108.50-1.70L108.50-1.70Q106.80 0 103 0L103 0Z" fill="#000000"></path></g></g><style>text {
  font-size: 64px;
  font-family: Arial Black;
  dominant-baseline: central;
  text-anchor: middle;
}</style></svg>