<svg width="209.6px" height="294.4400146484375px" xmlns="http://www.w3.org/2000/svg" viewBox="145.2 -72.22000732421876 209.6 294.4400146484375" style="background: rgba(0, 0, 0, 0) none repeat scroll 0% 0%;" preserveAspectRatio="xMidYMid"><defs><filter id="editing-extrusion" x="-100%" y="-100%" width="300%" height="300%"><feFlood result="color1" flood-color="none"></feFlood><feConvolveMatrix order="1,1" divisor="1" kernelMatrix="1" in="SourceAlpha" result="extrude"></feConvolveMatrix><feComposite in="color1" in2="extrude" result="comp-extrude" operator="in"></feComposite><feOffset dx="0.5" dy="0.5" in="comp-extrude" result="offset-extrude"></feOffset><feMerge><feMergeNode in="offset-extrude"></feMergeNode><feMergeNode in="SourceGraphic"></feMergeNode></feMerge></filter></defs><g filter="url(#editing-extrusion)"><g transform="translate(183.49999713897705, 148.5)"><path d="M124.80-136.80L124.80-37.80L124.80-37.80Q124.80-28.60 122.20-21.10L122.20-21.10L122.20-21.10Q119.60-13.60 113.10-8.30L113.10-8.30L113.10-8.30Q106.60-3 95.20 0L95.20 0L95.20 0Q83.80 3 66.20 3L66.20 3L66.20 3Q48.80 3 37.50 0L37.50 0L37.50 0Q26.20-3 19.70-8.30L19.70-8.30L19.70-8.30Q13.20-13.60 10.70-21.10L10.70-21.10L10.70-21.10Q8.20-28.60 8.20-37.80L8.20-37.80L8.20-70.20L8.20-70.20Q8.20-74 9.90-75.70L9.90-75.70L9.90-75.70Q11.60-77.40 15.40-77.40L15.40-77.40L44.40-77.40L44.40-77.40Q48.20-77.40 49.90-75.70L49.90-75.70L49.90-75.70Q51.60-74 51.60-70.20L51.60-70.20L51.60-45.80L51.60-45.80Q51.60-41.80 54.10-39.10L54.10-39.10L54.10-39.10Q56.60-36.40 65.80-36.40L65.80-36.40L65.80-36.40Q74.40-36.40 76.70-39.10L76.70-39.10L76.70-39.10Q79-41.80 79-45.80L79-45.80L79-136.80L79-136.80Q79-140.60 80.70-142.30L80.70-142.30L80.70-142.30Q82.40-144 86.20-144L86.20-144L117.60-144L117.60-144Q121.40-144 123.10-142.30L123.10-142.30L123.10-142.30Q124.80-140.60 124.80-136.80L124.80-136.80Z" fill="#000000"></path></g></g><style>text {
  font-size: 64px;
  font-family: Arial Black;
  dominant-baseline: central;
  text-anchor: middle;
}</style></svg>