<svg width="225.34000244140626px" height="294.4400146484375px" xmlns="http://www.w3.org/2000/svg" viewBox="137.3299987792969 -72.22000732421876 225.34000244140626 294.4400146484375" style="background: rgba(0, 0, 0, 0) none repeat scroll 0% 0%;" preserveAspectRatio="xMidYMid"><defs><filter id="editing-extrusion" x="-100%" y="-100%" width="300%" height="300%"><feFlood result="color1" flood-color="none"></feFlood><feConvolveMatrix order="1,1" divisor="1" kernelMatrix="1" in="SourceAlpha" result="extrude"></feConvolveMatrix><feComposite in="color1" in2="extrude" result="comp-extrude" operator="in"></feComposite><feOffset dx="0.5" dy="0.5" in="comp-extrude" result="offset-extrude"></feOffset><feMerge><feMergeNode in="offset-extrude"></feMergeNode><feMergeNode in="SourceGraphic"></feMergeNode></feMerge></filter></defs><g filter="url(#editing-extrusion)"><g transform="translate(174.49999523162842, 147)"><path d="M52 0L52 0L21 0L21 0Q17.20 0 15.50-1.70L15.50-1.70L15.50-1.70Q13.80-3.40 13.80-7.20L13.80-7.20L13.80-136.80L13.80-136.80Q13.80-140.60 15.50-142.30L15.50-142.30L15.50-142.30Q17.20-144 21-144L21-144L52-144L52-144Q55.80-144 57.50-142.30L57.50-142.30L57.50-142.30Q59.20-140.60 59.20-136.80L59.20-136.80L59.20-90.80L67.20-90.80L87.80-137.40L87.80-137.40Q89.20-141 91.60-142.50L91.60-142.50L91.60-142.50Q94-144 97.80-144L97.80-144L128.60-144L128.60-144Q132-144 133.20-142.30L133.20-142.30L133.20-142.30Q134.40-140.60 133-137.40L133-137.40L112.60-90.80L112.60-90.80Q123.80-90.20 130.50-82.90L130.50-82.90L130.50-82.90Q137.20-75.60 137.20-63.60L137.20-63.60L137.20-7.20L137.20-7.20Q137.20-3.40 135.50-1.70L135.50-1.70L135.50-1.70Q133.80 0 130 0L130 0L99.20 0L99.20 0Q95.40 0 93.70-1.70L93.70-1.70L93.70-1.70Q92-3.40 92-7.20L92-7.20L92-46.20L92-46.20Q92-49.40 90.40-51.20L90.40-51.20L90.40-51.20Q88.80-53 85.60-53L85.60-53L59.20-53L59.20-7.20L59.20-7.20Q59.20-3.40 57.50-1.70L57.50-1.70L57.50-1.70Q55.80 0 52 0Z" fill="#000000"></path></g></g><style>text {
  font-size: 64px;
  font-family: Arial Black;
  dominant-baseline: central;
  text-anchor: middle;
}</style></svg>