<svg width="211.48001708984376px" height="294.4400146484375px" xmlns="http://www.w3.org/2000/svg" viewBox="144.25999145507814 -72.22000732421876 211.48001708984376 294.4400146484375" style="background: rgba(0, 0, 0, 0) none repeat scroll 0% 0%;" preserveAspectRatio="xMidYMid"><defs><filter id="editing-extrusion" x="-100%" y="-100%" width="300%" height="300%"><feFlood result="color1" flood-color="none"></feFlood><feConvolveMatrix order="1,1" divisor="1" kernelMatrix="1" in="SourceAlpha" result="extrude"></feConvolveMatrix><feComposite in="color1" in2="extrude" result="comp-extrude" operator="in"></feComposite><feOffset dx="0.5" dy="0.5" in="comp-extrude" result="offset-extrude"></feOffset><feMerge><feMergeNode in="offset-extrude"></feMergeNode><feMergeNode in="SourceGraphic"></feMergeNode></feMerge></filter></defs><g filter="url(#editing-extrusion)"><g transform="translate(178.10000133514404, 147)"><path d="M122.80 0L122.80 0L21 0L21 0Q17.20 0 15.50-1.70L15.50-1.70L15.50-1.70Q13.80-3.40 13.80-7.20L13.80-7.20L13.80-136.80L13.80-136.80Q13.80-140.60 15.50-142.30L15.50-142.30L15.50-142.30Q17.20-144 21-144L21-144L52-144L52-144Q55.80-144 57.50-142.30L57.50-142.30L57.50-142.30Q59.20-140.60 59.20-136.80L59.20-136.80L59.20-37.80L86.60-37.80L86.60-70.20L86.60-70.20Q86.60-74 88.30-75.70L88.30-75.70L88.30-75.70Q90-77.40 93.80-77.40L93.80-77.40L122.80-77.40L122.80-77.40Q126.60-77.40 128.30-75.70L128.30-75.70L128.30-75.70Q130-74 130-70.20L130-70.20L130-7.20L130-7.20Q130-3.40 128.30-1.70L128.30-1.70L128.30-1.70Q126.60 0 122.80 0Z" fill="#000000"></path></g></g><style>text {
  font-size: 64px;
  font-family: Arial Black;
  dominant-baseline: central;
  text-anchor: middle;
}</style></svg>