<svg width="253.3800048828125px" height="294.4400146484375px" xmlns="http://www.w3.org/2000/svg" viewBox="123.30999755859375 -72.22000732421876 253.3800048828125 294.4400146484375" style="background: rgba(0, 0, 0, 0) none repeat scroll 0% 0%;" preserveAspectRatio="xMidYMid"><defs><filter id="editing-extrusion" x="-100%" y="-100%" width="300%" height="300%"><feFlood result="color1" flood-color="none"></feFlood><feConvolveMatrix order="1,1" divisor="1" kernelMatrix="1" in="SourceAlpha" result="extrude"></feConvolveMatrix><feComposite in="color1" in2="extrude" result="comp-extrude" operator="in"></feComposite><feOffset dx="0.5" dy="0.5" in="comp-extrude" result="offset-extrude"></feOffset><feMerge><feMergeNode in="offset-extrude"></feMergeNode><feMergeNode in="SourceGraphic"></feMergeNode></feMerge></filter></defs><g filter="url(#editing-extrusion)"><g transform="translate(165.10000896453857, 147)"><path d="M50.80 0L50.80 0L21 0L21 0Q17.20 0 15.50-1.70L15.50-1.70L15.50-1.70Q13.80-3.40 13.80-7.20L13.80-7.20L13.80-136.80L13.80-136.80Q13.80-140.60 15.50-142.30L15.50-142.30L15.50-142.30Q17.20-144 21-144L21-144L53.20-144L53.20-144Q56.40-144 58.50-142.60L58.50-142.60L58.50-142.60Q60.60-141.20 62.40-138L62.40-138L80.40-105.40L80.40-105.40Q81.40-103.60 82.10-102.80L82.10-102.80L82.10-102.80Q82.80-102 84-102L84-102L85.80-102L85.80-102Q87-102 87.70-102.80L87.70-102.80L87.70-102.80Q88.40-103.60 89.40-105.40L89.40-105.40L107.20-138L107.20-138Q109-141.20 111.10-142.60L111.10-142.60L111.10-142.60Q113.20-144 116.40-144L116.40-144L148.80-144L148.80-144Q152.60-144 154.30-142.30L154.30-142.30L154.30-142.30Q156-140.60 156-136.80L156-136.80L156-7.20L156-7.20Q156-3.40 154.30-1.70L154.30-1.70L154.30-1.70Q152.60 0 148.80 0L148.80 0L118 0L118 0Q114.20 0 112.50-1.70L112.50-1.70L112.50-1.70Q110.80-3.40 110.80-7.20L110.80-7.20L110.80-77.60L99-55.80L99-55.80Q97.20-52.40 94.70-50.90L94.70-50.90L94.70-50.90Q92.20-49.40 88.40-49.40L88.40-49.40L80.40-49.40L80.40-49.40Q76.60-49.40 74.10-50.90L74.10-50.90L74.10-50.90Q71.60-52.40 69.80-55.80L69.80-55.80L58-77.60L58-7.20L58-7.20Q58-3.40 56.30-1.70L56.30-1.70L56.30-1.70Q54.60 0 50.80 0Z" fill="#000000"></path></g></g><style>text {
  font-size: 64px;
  font-family: Arial Black;
  dominant-baseline: central;
  text-anchor: middle;
}</style></svg>