<svg width="227.2800048828125px" height="294.4400146484375px" xmlns="http://www.w3.org/2000/svg" viewBox="136.35999755859376 -72.22000732421876 227.2800048828125 294.4400146484375" style="background: rgba(0, 0, 0, 0) none repeat scroll 0% 0%;" preserveAspectRatio="xMidYMid"><defs><filter id="editing-extrusion" x="-100%" y="-100%" width="300%" height="300%"><feFlood result="color1" flood-color="none"></feFlood><feConvolveMatrix order="1,1" divisor="1" kernelMatrix="1" in="SourceAlpha" result="extrude"></feConvolveMatrix><feComposite in="color1" in2="extrude" result="comp-extrude" operator="in"></feComposite><feOffset dx="0.5" dy="0.5" in="comp-extrude" result="offset-extrude"></feOffset><feMerge><feMergeNode in="offset-extrude"></feMergeNode><feMergeNode in="SourceGraphic"></feMergeNode></feMerge></filter></defs><g filter="url(#editing-extrusion)"><g transform="translate(174.69999980926514, 147)"><path d="M51 0L51 0L21 0L21 0Q17.20 0 15.50-1.70L15.50-1.70L15.50-1.70Q13.80-3.40 13.80-7.20L13.80-7.20L13.80-136.80L13.80-136.80Q13.80-140.60 15.50-142.30L15.50-142.30L15.50-142.30Q17.20-144 21-144L21-144L41.80-144L41.80-144Q45.60-144 48.30-142.80L48.30-142.80L48.30-142.80Q51-141.60 53.60-138.60L53.60-138.60L92.40-94.20L92.40-136.80L92.40-136.80Q92.40-140.60 94.10-142.30L94.10-142.30L94.10-142.30Q95.80-144 99.60-144L99.60-144L129.60-144L129.60-144Q133.40-144 135.10-142.30L135.10-142.30L135.10-142.30Q136.80-140.60 136.80-136.80L136.80-136.80L136.80-7.20L136.80-7.20Q136.80-3.40 135.10-1.70L135.10-1.70L135.10-1.70Q133.40 0 129.60 0L129.60 0L99.60 0L99.60 0Q95.80 0 94.10-1.70L94.10-1.70L94.10-1.70Q92.40-3.40 92.40-7.20L92.40-7.20L92.40-31.80L58.20-73.20L58.20-7.20L58.20-7.20Q58.20-3.40 56.50-1.70L56.50-1.70L56.50-1.70Q54.80 0 51 0Z" fill="#000000"></path></g></g><style>text {
  font-size: 64px;
  font-family: Arial Black;
  dominant-baseline: central;
  text-anchor: middle;
}</style></svg>