<svg width="222.88001708984373px" height="294.4400146484375px" xmlns="http://www.w3.org/2000/svg" viewBox="138.55999145507815 -72.22000732421876 222.88001708984373 294.4400146484375" style="background: rgba(0, 0, 0, 0) none repeat scroll 0% 0%;" preserveAspectRatio="xMidYMid"><defs><filter id="editing-extrusion" x="-100%" y="-100%" width="300%" height="300%"><feFlood result="color1" flood-color="none"></feFlood><feConvolveMatrix order="1,1" divisor="1" kernelMatrix="1" in="SourceAlpha" result="extrude"></feConvolveMatrix><feComposite in="color1" in2="extrude" result="comp-extrude" operator="in"></feComposite><feOffset dx="0.5" dy="0.5" in="comp-extrude" result="offset-extrude"></feOffset><feMerge><feMergeNode in="offset-extrude"></feMergeNode><feMergeNode in="SourceGraphic"></feMergeNode></feMerge></filter></defs><g filter="url(#editing-extrusion)"><g transform="translate(176.2999973297119, 150)"><path d="M135.80-106L135.80-37.80L135.80-37.80Q135.80-28.60 133.10-21.10L133.10-21.10L133.10-21.10Q130.40-13.60 123.50-8.30L123.50-8.30L123.50-8.30Q116.60-3 104.50 0L104.50 0L104.50 0Q92.40 3 73.80 3L73.80 3L73.80 3Q55.20 3 43 0L43 0L43 0Q30.80-3 23.90-8.30L23.90-8.30L23.90-8.30Q17-13.60 14.30-21.10L14.30-21.10L14.30-21.10Q11.60-28.60 11.60-37.80L11.60-37.80L11.60-106L11.60-106Q11.60-115.20 14.30-122.70L14.30-122.70L14.30-122.70Q17-130.20 23.90-135.60L23.90-135.60L23.90-135.60Q30.80-141 43-144L43-144L43-144Q55.20-147 73.80-147L73.80-147L73.80-147Q92.40-147 104.50-144L104.50-144L104.50-144Q116.60-141 123.50-135.60L123.50-135.60L123.50-135.60Q130.40-130.20 133.10-122.70L133.10-122.70L133.10-122.70Q135.80-115.20 135.80-106L135.80-106ZM57-98.80L57-45L57-45Q57-41 60-38.30L60-38.30L60-38.30Q63-35.60 73.80-35.60L73.80-35.60L73.80-35.60Q84.60-35.60 87.60-38.30L87.60-38.30L87.60-38.30Q90.60-41 90.60-45L90.60-45L90.60-98.80L90.60-98.80Q90.60-102.60 87.60-105.30L87.60-105.30L87.60-105.30Q84.60-108 73.80-108L73.80-108L73.80-108Q63-108 60-105.30L60-105.30L60-105.30Q57-102.60 57-98.80L57-98.80Z" fill="#000000"></path></g></g><style>text {
  font-size: 64px;
  font-family: Arial Black;
  dominant-baseline: central;
  text-anchor: middle;
}</style></svg>