<svg width="207.92000732421874px" height="294.4400146484375px" xmlns="http://www.w3.org/2000/svg" viewBox="146.0399963378906 -72.22000732421876 207.92000732421874 294.4400146484375" style="background: rgba(0, 0, 0, 0) none repeat scroll 0% 0%;" preserveAspectRatio="xMidYMid"><defs><filter id="editing-extrusion" x="-100%" y="-100%" width="300%" height="300%"><feFlood result="color1" flood-color="none"></feFlood><feConvolveMatrix order="1,1" divisor="1" kernelMatrix="1" in="SourceAlpha" result="extrude"></feConvolveMatrix><feComposite in="color1" in2="extrude" result="comp-extrude" operator="in"></feComposite><feOffset dx="0.5" dy="0.5" in="comp-extrude" result="offset-extrude"></feOffset><feMerge><feMergeNode in="offset-extrude"></feMergeNode><feMergeNode in="SourceGraphic"></feMergeNode></feMerge></filter></defs><g filter="url(#editing-extrusion)"><g transform="translate(178.40000438690186, 147)"><path d="M52 0L52 0L21 0L21 0Q17.20 0 15.50-1.70L15.50-1.70L15.50-1.70Q13.80-3.40 13.80-7.20L13.80-7.20L13.80-136.80L13.80-136.80Q13.80-140.60 15.50-142.30L15.50-142.30L15.50-142.30Q17.20-144 21-144L21-144L82.20-144L82.20-144Q109.40-144 119.40-133.20L119.40-133.20L119.40-133.20Q129.40-122.40 129.40-105L129.40-105L129.40-79.40L129.40-79.40Q129.40-62 119.40-51.20L119.40-51.20L119.40-51.20Q109.40-40.40 82.20-40.40L82.20-40.40L59.20-40.40L59.20-7.20L59.20-7.20Q59.20-3.40 57.50-1.70L57.50-1.70L57.50-1.70Q55.80 0 52 0ZM76.80-106.60L58.80-106.60L58.80-76.40L76.80-76.40L76.80-76.40Q82.60-76.40 84.40-79.40L84.40-79.40L84.40-79.40Q86.20-82.40 86.20-86.20L86.20-86.20L86.20-96.80L86.20-96.80Q86.20-100.60 84.40-103.60L84.40-103.60L84.40-103.60Q82.60-106.60 76.80-106.60L76.80-106.60Z" fill="#000000"></path></g></g><style>text {
  font-size: 64px;
  font-family: Arial Black;
  dominant-baseline: central;
  text-anchor: middle;
}</style></svg>