<svg width="222.88001708984373px" height="294.4400146484375px" xmlns="http://www.w3.org/2000/svg" viewBox="138.55999145507815 -72.22000732421876 222.88001708984373 294.4400146484375" style="background: rgba(0, 0, 0, 0) none repeat scroll 0% 0%;" preserveAspectRatio="xMidYMid"><defs><filter id="editing-extrusion" x="-100%" y="-100%" width="300%" height="300%"><feFlood result="color1" flood-color="none"></feFlood><feConvolveMatrix order="1,1" divisor="1" kernelMatrix="1" in="SourceAlpha" result="extrude"></feConvolveMatrix><feComposite in="color1" in2="extrude" result="comp-extrude" operator="in"></feComposite><feOffset dx="0.5" dy="0.5" in="comp-extrude" result="offset-extrude"></feOffset><feMerge><feMergeNode in="offset-extrude"></feMergeNode><feMergeNode in="SourceGraphic"></feMergeNode></feMerge></filter></defs><g filter="url(#editing-extrusion)"><g transform="translate(176.2999973297119, 157.5)"><path d="M89 18L89 18L58.20 18L58.20 18Q54.40 18 52.70 16.30L52.70 16.30L52.70 16.30Q51 14.60 51 10.80L51 10.80L51-0.20L51-0.20Q27.80-3.60 19.70-14.10L19.70-14.10L19.70-14.10Q11.60-24.60 11.60-39.60L11.60-39.60L11.60-106L11.60-106Q11.60-115.20 14.30-122.70L14.30-122.70L14.30-122.70Q17-130.20 23.90-135.60L23.90-135.60L23.90-135.60Q30.80-141 43-144L43-144L43-144Q55.20-147 73.80-147L73.80-147L73.80-147Q92.40-147 104.50-144L104.50-144L104.50-144Q116.60-141 123.50-135.60L123.50-135.60L123.50-135.60Q130.40-130.20 133.10-122.70L133.10-122.70L133.10-122.70Q135.80-115.20 135.80-106L135.80-106L135.80-39.60L135.80-39.60Q135.80-32 134-25.50L134-25.50L134-25.50Q132.20-19 127.80-14L127.80-14L127.80-14Q123.40-9 115.70-5.40L115.70-5.40L115.70-5.40Q108-1.80 96.20-0.20L96.20-0.20L96.20 10.80L96.20 10.80Q96.20 14.60 94.50 16.30L94.50 16.30L94.50 16.30Q92.80 18 89 18ZM57-98.60L57-44L57-44Q57-40 60-37.30L60-37.30L60-37.30Q63-34.60 73.80-34.60L73.80-34.60L73.80-34.60Q84.60-34.60 87.60-37.30L87.60-37.30L87.60-37.30Q90.60-40 90.60-44L90.60-44L90.60-98.60L90.60-98.60Q90.60-102.40 87.60-105.10L87.60-105.10L87.60-105.10Q84.60-107.80 73.80-107.80L73.80-107.80L73.80-107.80Q63-107.80 60-105.10L60-105.10L60-105.10Q57-102.40 57-98.60L57-98.60Z" fill="#000000"></path></g></g><style>text {
  font-size: 64px;
  font-family: Arial Black;
  dominant-baseline: central;
  text-anchor: middle;
}</style></svg>