<svg width="224.56000976562498px" height="294.4400146484375px" xmlns="http://www.w3.org/2000/svg" viewBox="137.71999511718752 -72.22000732421876 224.56000976562498 294.4400146484375" style="background: rgba(0, 0, 0, 0) none repeat scroll 0% 0%;" preserveAspectRatio="xMidYMid"><defs><filter id="editing-extrusion" x="-100%" y="-100%" width="300%" height="300%"><feFlood result="color1" flood-color="none"></feFlood><feConvolveMatrix order="1,1" divisor="1" kernelMatrix="1" in="SourceAlpha" result="extrude"></feConvolveMatrix><feComposite in="color1" in2="extrude" result="comp-extrude" operator="in"></feComposite><feOffset dx="0.5" dy="0.5" in="comp-extrude" result="offset-extrude"></feOffset><feMerge><feMergeNode in="offset-extrude"></feMergeNode><feMergeNode in="SourceGraphic"></feMergeNode></feMerge></filter></defs><g filter="url(#editing-extrusion)"><g transform="translate(173.10000133514404, 147)"><path d="M74-108L59-108L59-82.40L74-82.40L74-82.40Q79.20-82.40 81-85.10L81-85.10L81-85.10Q82.80-87.80 82.80-91.80L82.80-91.80L82.80-98.60L82.80-98.60Q82.80-102.60 81-105.30L81-105.30L81-105.30Q79.20-108 74-108L74-108ZM51.80 0L51.80 0L21 0L21 0Q17.20 0 15.50-1.70L15.50-1.70L15.50-1.70Q13.80-3.40 13.80-7.20L13.80-7.20L13.80-136.80L13.80-136.80Q13.80-140.60 15.50-142.30L15.50-142.30L15.50-142.30Q17.20-144 21-144L21-144L87.60-144L87.60-144Q110-144 118.50-134.70L118.50-134.70L118.50-134.70Q127-125.40 127-110.60L127-110.60L127-101.40L127-101.40Q127-93 124.50-87.10L124.50-87.10L124.50-87.10Q122-81.20 115.80-78.60L115.80-78.60L115.80-78.60Q126.60-77.40 133.30-69.80L133.30-69.80L133.30-69.80Q140-62.20 140-49.60L140-49.60L140-7.20L140-7.20Q140-3.40 138.30-1.70L138.30-1.70L138.30-1.70Q136.60 0 132.80 0L132.80 0L101.80 0L101.80 0Q98 0 96.30-1.70L96.30-1.70L96.30-1.70Q94.60-3.40 94.60-7.20L94.60-7.20L94.60-37.80L94.60-37.80Q94.60-42.20 92.90-44.30L92.90-44.30L92.90-44.30Q91.20-46.40 87-46.40L87-46.40L59-46.40L59-7.20L59-7.20Q59-3.40 57.30-1.70L57.30-1.70L57.30-1.70Q55.60 0 51.80 0Z" fill="#000000"></path></g></g><style>text {
  font-size: 64px;
  font-family: Arial Black;
  dominant-baseline: central;
  text-anchor: middle;
}</style></svg>