<svg width="199.24000244140623px" height="294.4400146484375px" xmlns="http://www.w3.org/2000/svg" viewBox="150.3799987792969 -72.22000732421876 199.24000244140623 294.4400146484375" style="background: rgba(0, 0, 0, 0) none repeat scroll 0% 0%;" preserveAspectRatio="xMidYMid"><defs><filter id="editing-extrusion" x="-100%" y="-100%" width="300%" height="300%"><feFlood result="color1" flood-color="none"></feFlood><feConvolveMatrix order="1,1" divisor="1" kernelMatrix="1" in="SourceAlpha" result="extrude"></feConvolveMatrix><feComposite in="color1" in2="extrude" result="comp-extrude" operator="in"></feComposite><feOffset dx="0.5" dy="0.5" in="comp-extrude" result="offset-extrude"></feOffset><feMerge><feMergeNode in="offset-extrude"></feMergeNode><feMergeNode in="SourceGraphic"></feMergeNode></feMerge></filter></defs><g filter="url(#editing-extrusion)"><g transform="translate(183.89999866485596, 147)"><path d="M80.60 0L80.60 0L17.40 0L17.40 0Q13.60 0 11.90-1.70L11.90-1.70L11.90-1.70Q10.20-3.40 10.20-7.20L10.20-7.20L10.20-30.60L10.20-30.60Q10.20-34.40 11.90-36.10L11.90-36.10L11.90-36.10Q13.60-37.80 17.40-37.80L17.40-37.80L71.20-37.80L71.20-37.80Q73.80-37.80 75.10-39.50L75.10-39.50L75.10-39.50Q76.40-41.20 76.40-43.60L76.40-43.60L76.40-43.60Q76.40-47 75.10-48.60L75.10-48.60L75.10-48.60Q73.80-50.20 71.20-50.40L71.20-50.40L41.20-54.60L41.20-54.60Q27.20-56.60 18.70-63.80L18.70-63.80L18.70-63.80Q10.20-71 10.20-87.80L10.20-87.80L10.20-108.80L10.20-108.80Q10.20-125.80 21.20-134.90L21.20-134.90L21.20-134.90Q32.20-144 51.60-144L51.60-144L107.60-144L107.60-144Q111.40-144 113.10-142.30L113.10-142.30L113.10-142.30Q114.80-140.60 114.80-136.80L114.80-136.80L114.80-113L114.80-113Q114.80-109.20 113.10-107.50L113.10-107.50L113.10-107.50Q111.40-105.80 107.60-105.80L107.60-105.80L61-105.80L61-105.80Q58.40-105.80 57-104.10L57-104.10L57-104.10Q55.60-102.40 55.60-99.80L55.60-99.80L55.60-99.80Q55.60-97.20 57-95.40L57-95.40L57-95.40Q58.40-93.60 61-93.40L61-93.40L90.80-89.40L90.80-89.40Q104.80-87.40 113.40-80.20L113.40-80.20L113.40-80.20Q122-73 122-56.20L122-56.20L122-35.20L122-35.20Q122-18.20 110.90-9.10L110.90-9.10L110.90-9.10Q99.80 0 80.60 0Z" fill="#000000"></path></g></g><style>text {
  font-size: 64px;
  font-family: Arial Black;
  dominant-baseline: central;
  text-anchor: middle;
}</style></svg>