<svg width="200.8800048828125px" height="294.4400146484375px" xmlns="http://www.w3.org/2000/svg" viewBox="149.55999755859375 -72.22000732421876 200.8800048828125 294.4400146484375" style="background: rgba(0, 0, 0, 0) none repeat scroll 0% 0%;" preserveAspectRatio="xMidYMid"><defs><filter id="editing-extrusion" x="-100%" y="-100%" width="300%" height="300%"><feFlood result="color1" flood-color="none"></feFlood><feConvolveMatrix order="1,1" divisor="1" kernelMatrix="1" in="SourceAlpha" result="extrude"></feConvolveMatrix><feComposite in="color1" in2="extrude" result="comp-extrude" operator="in"></feComposite><feOffset dx="0.5" dy="0.5" in="comp-extrude" result="offset-extrude"></feOffset><feMerge><feMergeNode in="offset-extrude"></feMergeNode><feMergeNode in="SourceGraphic"></feMergeNode></feMerge></filter></defs><g filter="url(#editing-extrusion)"><g transform="translate(184.3999924659729, 147)"><path d="M81.80 0L81.80 0L49.40 0L49.40 0Q45.60 0 43.90-1.70L43.90-1.70L43.90-1.70Q42.20-3.40 42.20-7.20L42.20-7.20L42.20-105.40L12.80-105.40L12.80-105.40Q9-105.40 7.30-107.10L7.30-107.10L7.30-107.10Q5.60-108.80 5.60-112.60L5.60-112.60L5.60-136.80L5.60-136.80Q5.60-140.60 7.30-142.30L7.30-142.30L7.30-142.30Q9-144 12.80-144L12.80-144L118.40-144L118.40-144Q122.20-144 123.90-142.30L123.90-142.30L123.90-142.30Q125.60-140.60 125.60-136.80L125.60-136.80L125.60-112.60L125.60-112.60Q125.60-108.80 123.90-107.10L123.90-107.10L123.90-107.10Q122.20-105.40 118.40-105.40L118.40-105.40L89-105.40L89-7.20L89-7.20Q89-3.40 87.30-1.70L87.30-1.70L87.30-1.70Q85.60 0 81.80 0Z" fill="#000000"></path></g></g><style>text {
  font-size: 64px;
  font-family: Arial Black;
  dominant-baseline: central;
  text-anchor: middle;
}</style></svg>