<svg width="225.34000244140626px" height="294.4400146484375px" xmlns="http://www.w3.org/2000/svg" viewBox="137.3299987792969 -72.22000732421876 225.34000244140626 294.4400146484375" style="background: rgba(0, 0, 0, 0) none repeat scroll 0% 0%;" preserveAspectRatio="xMidYMid"><defs><filter id="editing-extrusion" x="-100%" y="-100%" width="300%" height="300%"><feFlood result="color1" flood-color="none"></feFlood><feConvolveMatrix order="1,1" divisor="1" kernelMatrix="1" in="SourceAlpha" result="extrude"></feConvolveMatrix><feComposite in="color1" in2="extrude" result="comp-extrude" operator="in"></feComposite><feOffset dx="0.5" dy="0.5" in="comp-extrude" result="offset-extrude"></feOffset><feMerge><feMergeNode in="offset-extrude"></feMergeNode><feMergeNode in="SourceGraphic"></feMergeNode></feMerge></filter></defs><g filter="url(#editing-extrusion)"><g transform="translate(175.39999675750732, 148.5)"><path d="M136.40-136.80L136.40-37.80L136.40-37.80Q136.40-28.60 133.70-21.10L133.70-21.10L133.70-21.10Q131-13.60 124.10-8.30L124.10-8.30L124.10-8.30Q117.20-3 105.20 0L105.20 0L105.20 0Q93.20 3 74.60 3L74.60 3L74.60 3Q56 3 44 0L44 0L44 0Q32-3 25.10-8.30L25.10-8.30L25.10-8.30Q18.20-13.60 15.50-21.10L15.50-21.10L15.50-21.10Q12.80-28.60 12.80-37.80L12.80-37.80L12.80-136.80L12.80-136.80Q12.80-140.60 14.50-142.30L14.50-142.30L14.50-142.30Q16.20-144 20-144L20-144L51.40-144L51.40-144Q55.20-144 56.90-142.30L56.90-142.30L56.90-142.30Q58.60-140.60 58.60-136.80L58.60-136.80L58.60-45.60L58.60-45.60Q58.60-41.60 61.60-38.90L61.60-38.90L61.60-38.90Q64.60-36.20 75-36.20L75-36.20L75-36.20Q85.60-36.20 88.60-38.90L88.60-38.90L88.60-38.90Q91.60-41.60 91.60-45.60L91.60-45.60L91.60-136.80L91.60-136.80Q91.60-140.60 93.30-142.30L93.30-142.30L93.30-142.30Q95-144 98.80-144L98.80-144L129.20-144L129.20-144Q133-144 134.70-142.30L134.70-142.30L134.70-142.30Q136.40-140.60 136.40-136.80L136.40-136.80Z" fill="#000000"></path></g></g><style>text {
  font-size: 64px;
  font-family: Arial Black;
  dominant-baseline: central;
  text-anchor: middle;
}</style></svg>