<svg width="221px" height="294.4400146484375px" xmlns="http://www.w3.org/2000/svg" viewBox="139.5 -72.22000732421876 221 294.4400146484375" style="background: rgba(0, 0, 0, 0) none repeat scroll 0% 0%;" preserveAspectRatio="xMidYMid"><defs><filter id="editing-extrusion" x="-100%" y="-100%" width="300%" height="300%"><feFlood result="color1" flood-color="none"></feFlood><feConvolveMatrix order="1,1" divisor="1" kernelMatrix="1" in="SourceAlpha" result="extrude"></feConvolveMatrix><feComposite in="color1" in2="extrude" result="comp-extrude" operator="in"></feComposite><feOffset dx="0.5" dy="0.5" in="comp-extrude" result="offset-extrude"></feOffset><feMerge><feMergeNode in="offset-extrude"></feMergeNode><feMergeNode in="SourceGraphic"></feMergeNode></feMerge></filter></defs><g filter="url(#editing-extrusion)"><g transform="translate(177.00000286102295, 147)"><path d="M99 0L99 0L47 0L47 0Q43.20 0 40.70-1.40L40.70-1.40L40.70-1.40Q38.20-2.80 36.80-6.60L36.80-6.60L17.20-55.60L17.20-55.60Q15.40-60 14.20-63.30L14.20-63.30L14.20-63.30Q13-66.60 12.20-69.60L12.20-69.60L12.20-69.60Q11.40-72.60 11.10-75.90L11.10-75.90L11.10-75.90Q10.80-79.20 10.80-84L10.80-84L10.80-136.80L10.80-136.80Q10.80-140.60 12.50-142.30L12.50-142.30L12.50-142.30Q14.20-144 18-144L18-144L49.80-144L49.80-144Q53.60-144 55.60-142.30L55.60-142.30L55.60-142.30Q57.60-140.60 57.60-136.80L57.60-136.80L57.60-81.60L57.60-81.60Q57.60-79.60 58-77.60L58-77.60L58-77.60Q58.40-75.60 59.20-73.40L59.20-73.40L68.60-45.40L68.60-45.40Q69.20-43.40 70-42.70L70-42.70L70-42.70Q70.80-42 72.40-42L72.40-42L74.60-42L74.60-42Q76.20-42 77-42.70L77-42.70L77-42.70Q77.80-43.40 78.40-45.40L78.40-45.40L87.80-73.60L87.80-73.60Q88.60-75.80 89-77.80L89-77.80L89-77.80Q89.40-79.80 89.40-81.80L89.40-81.80L89.40-136.80L89.40-136.80Q89.40-140.60 91.10-142.30L91.10-142.30L91.10-142.30Q92.80-144 96.60-144L96.60-144L128-144L128-144Q131.80-144 133.50-142.30L133.50-142.30L133.50-142.30Q135.20-140.60 135.20-136.80L135.20-136.80L135.20-84L135.20-84Q135.20-79.20 134.90-75.90L134.90-75.90L134.90-75.90Q134.60-72.60 133.80-69.60L133.80-69.60L133.80-69.60Q133-66.60 131.80-63.30L131.80-63.30L131.80-63.30Q130.60-60 128.80-55.60L128.80-55.60L109.20-6.60L109.20-6.60Q107.80-2.80 105.30-1.40L105.30-1.40L105.30-1.40Q102.80 0 99 0Z" fill="#000000"></path></g></g><style>text {
  font-size: 64px;
  font-family: Arial Black;
  dominant-baseline: central;
  text-anchor: middle;
}</style></svg>