<svg width="248.47999267578123px" height="294.4400146484375px" xmlns="http://www.w3.org/2000/svg" viewBox="125.76000366210938 -72.22000732421876 248.47999267578123 294.4400146484375" style="background: rgba(0, 0, 0, 0) none repeat scroll 0% 0%;" preserveAspectRatio="xMidYMid"><defs><filter id="editing-extrusion" x="-100%" y="-100%" width="300%" height="300%"><feFlood result="color1" flood-color="none"></feFlood><feConvolveMatrix order="1,1" divisor="1" kernelMatrix="1" in="SourceAlpha" result="extrude"></feConvolveMatrix><feComposite in="color1" in2="extrude" result="comp-extrude" operator="in"></feComposite><feOffset dx="0.5" dy="0.5" in="comp-extrude" result="offset-extrude"></feOffset><feMerge><feMergeNode in="offset-extrude"></feMergeNode><feMergeNode in="SourceGraphic"></feMergeNode></feMerge></filter></defs><g filter="url(#editing-extrusion)"><g transform="translate(166.89999389648438, 147)"><path d="M117.20-144L117.20-144L147-144L147-144Q150.80-144 152.50-142.30L152.50-142.30L152.50-142.30Q154.20-140.60 154.20-136.80L154.20-136.80L154.20-59.20L154.20-59.20Q154.20-52.80 153.70-47.30L153.70-47.30L153.70-47.30Q153.20-41.80 150.60-34.40L150.60-34.40L140.60-7.20L140.60-7.20Q139.60-4.20 137.70-2.10L137.70-2.10L137.70-2.10Q135.80 0 132.60 0L132.60 0L106 0L106 0Q102.80 0 100.20-1.40L100.20-1.40L100.20-1.40Q97.60-2.80 96.80-6L96.80-6L87.60-38.60L87.60-38.60Q87-40.60 86.10-41.30L86.10-41.30L86.10-41.30Q85.20-42 84-42L84-42L82.20-42L82.20-42Q81-42 80.10-41.30L80.10-41.30L80.10-41.30Q79.20-40.60 78.60-38.60L78.60-38.60L69.20-6L69.20-6Q68.40-3 66.20-1.50L66.20-1.50L66.20-1.50Q64 0 60.80 0L60.80 0L34.40 0L34.40 0Q31.20 0 28.90-2L28.90-2L28.90-2Q26.60-4 25.60-7.20L25.60-7.20L15.60-34.80L15.60-34.80Q13-42.20 12.50-47.70L12.50-47.70L12.50-47.70Q12-53.20 12-59.60L12-59.60L12-136.80L12-136.80Q12-140.60 13.70-142.30L13.70-142.30L13.70-142.30Q15.40-144 19.20-144L19.20-144L50-144L50-144Q53.80-144 55.50-142.30L55.50-142.30L55.50-142.30Q57.20-140.60 57.20-136.80L57.20-136.80L57.20-63.20L68.80-88.40L68.80-88.40Q70.40-91.80 73-93.20L73-93.20L73-93.20Q75.60-94.60 79.40-94.60L79.40-94.60L87.80-94.60L87.80-94.60Q91.60-94.60 94.20-93.20L94.20-93.20L94.20-93.20Q96.80-91.80 98.40-88.40L98.40-88.40L110-63.20L110-136.80L110-136.80Q110-140.60 111.70-142.30L111.70-142.30L111.70-142.30Q113.40-144 117.20-144Z" fill="#000000"></path></g></g><style>text {
  font-size: 64px;
  font-family: Arial Black;
  dominant-baseline: central;
  text-anchor: middle;
}</style></svg>