<svg width="222.88001708984373px" height="294.4400146484375px" xmlns="http://www.w3.org/2000/svg" viewBox="138.55999145507815 -72.22000732421876 222.88001708984373 294.4400146484375" style="background: rgba(0, 0, 0, 0) none repeat scroll 0% 0%;" preserveAspectRatio="xMidYMid"><defs><filter id="editing-extrusion" x="-100%" y="-100%" width="300%" height="300%"><feFlood result="color1" flood-color="none"></feFlood><feConvolveMatrix order="1,1" divisor="1" kernelMatrix="1" in="SourceAlpha" result="extrude"></feConvolveMatrix><feComposite in="color1" in2="extrude" result="comp-extrude" operator="in"></feComposite><feOffset dx="0.5" dy="0.5" in="comp-extrude" result="offset-extrude"></feOffset><feMerge><feMergeNode in="offset-extrude"></feMergeNode><feMergeNode in="SourceGraphic"></feMergeNode></feMerge></filter></defs><g filter="url(#editing-extrusion)"><g transform="translate(176.3000030517578, 147)"><path d="M56.80-27L56.80-7.20L56.80-7.20Q56.80-3.40 55.10-1.70L55.10-1.70L55.10-1.70Q53.40 0 49.60 0L49.60 0L19.20 0L19.20 0Q15.40 0 13.70-1.70L13.70-1.70L13.70-1.70Q12-3.40 12-7.20L12-7.20L12-28.60L12-28.60Q12-37.80 13.60-42.40L13.60-42.40L13.60-42.40Q15.20-47 19.60-53.20L19.60-53.20L35.80-75L19.60-96.80L19.60-96.80Q15-103 13.50-107.60L13.50-107.60L13.50-107.60Q12-112.20 12-121.40L12-121.40L12-136.80L12-136.80Q12-140.60 13.70-142.30L13.70-142.30L13.70-142.30Q15.40-144 19.20-144L19.20-144L50-144L50-144Q53.80-144 55.50-142.30L55.50-142.30L55.50-142.30Q57.20-140.60 57.20-136.80L57.20-136.80L57.20-123L57.20-123Q57.20-121 57.40-118.80L57.40-118.80L57.40-118.80Q57.60-116.60 59-114.60L59-114.60L67.80-102L67.80-102Q68.80-100.40 69.90-99.50L69.90-99.50L69.90-99.50Q71-98.60 72.60-98.60L72.60-98.60L75-98.60L75-98.60Q76.60-98.60 77.60-99.50L77.60-99.50L77.60-99.50Q78.60-100.40 79.80-102L79.80-102L88.80-114.60L88.80-114.60Q90.20-116.60 90.40-118.80L90.40-118.80L90.40-118.80Q90.60-121 90.60-123L90.60-123L90.60-136.80L90.60-136.80Q90.60-140.60 92.30-142.30L92.30-142.30L92.30-142.30Q94-144 97.80-144L97.80-144L128.20-144L128.20-144Q132-144 133.70-142.30L133.70-142.30L133.70-142.30Q135.40-140.60 135.40-136.80L135.40-136.80L135.40-121.40L135.40-121.40Q135.40-112.20 133.80-107.60L133.80-107.60L133.80-107.60Q132.20-103 127.80-96.80L127.80-96.80L111.60-74.80L127.80-53.20L127.80-53.20Q132.40-47 133.90-42.40L133.90-42.40L133.90-42.40Q135.40-37.80 135.40-28.60L135.40-28.60L135.40-7.20L135.40-7.20Q135.40-3.40 133.70-1.70L133.70-1.70L133.70-1.70Q132 0 128.20 0L128.20 0L97.80 0L97.80 0Q94 0 92.30-1.70L92.30-1.70L92.30-1.70Q90.60-3.40 90.60-7.20L90.60-7.20L90.60-27L90.60-27Q90.60-29 90.40-31.20L90.40-31.20L90.40-31.20Q90.20-33.40 88.80-35.40L88.80-35.40L80-48L80-48Q78.80-49.80 77.80-50.60L77.80-50.60L77.80-50.60Q76.80-51.40 75.20-51.40L75.20-51.40L72.40-51.40L72.40-51.40Q70.80-51.40 69.80-50.60L69.80-50.60L69.80-50.60Q68.80-49.80 67.60-48L67.60-48L58.60-35.40L58.60-35.40Q57.20-33.40 57-31.20L57-31.20L57-31.20Q56.80-29 56.80-27L56.80-27Z" fill="#000000"></path></g></g><style>text {
  font-size: 64px;
  font-family: Arial Black;
  dominant-baseline: central;
  text-anchor: middle;
}</style></svg>