<svg width="214.20001220703125px" height="294.4400146484375px" xmlns="http://www.w3.org/2000/svg" viewBox="142.89999389648438 -72.22000732421876 214.20001220703125 294.4400146484375" style="background: rgba(0, 0, 0, 0) none repeat scroll 0% 0%;" preserveAspectRatio="xMidYMid"><defs><filter id="editing-extrusion" x="-100%" y="-100%" width="300%" height="300%"><feFlood result="color1" flood-color="none"></feFlood><feConvolveMatrix order="1,1" divisor="1" kernelMatrix="1" in="SourceAlpha" result="extrude"></feConvolveMatrix><feComposite in="color1" in2="extrude" result="comp-extrude" operator="in"></feComposite><feOffset dx="0.5" dy="0.5" in="comp-extrude" result="offset-extrude"></feOffset><feMerge><feMergeNode in="offset-extrude"></feMergeNode><feMergeNode in="SourceGraphic"></feMergeNode></feMerge></filter></defs><g filter="url(#editing-extrusion)"><g transform="translate(179.5, 147)"><path d="M86.80 0L86.80 0L54.40 0L54.40 0Q50.60 0 48.90-1.70L48.90-1.70L48.90-1.70Q47.20-3.40 47.20-7.20L47.20-7.20L47.20-32.80L16.60-73.80L16.60-73.80Q12-80 10.50-84.60L10.50-84.60L10.50-84.60Q9-89.20 9-98.40L9-98.40L9-136.80L9-136.80Q9-140.60 10.70-142.30L10.70-142.30L10.70-142.30Q12.40-144 16.20-144L16.20-144L47-144L47-144Q50.80-144 52.50-142.30L52.50-142.30L52.50-142.30Q54.20-140.60 54.20-136.80L54.20-136.80L54.20-104L54.20-104Q54.20-102 54.40-99.80L54.40-99.80L54.40-99.80Q54.60-97.60 56-95.60L56-95.60L65.20-81.20L65.20-81.20Q66.20-79.40 67.30-78.60L67.30-78.60L67.30-78.60Q68.40-77.80 70-77.80L70-77.80L72-77.80L72-77.80Q73.60-77.80 74.70-78.60L74.70-78.60L74.70-78.60Q75.80-79.40 76.80-81.20L76.80-81.20L86-95.60L86-95.60Q87.40-97.60 87.60-99.80L87.60-99.80L87.60-99.80Q87.80-102 87.80-104L87.80-104L87.80-136.80L87.80-136.80Q87.80-140.60 89.50-142.30L89.50-142.30L89.50-142.30Q91.20-144 95-144L95-144L124.80-144L124.80-144Q128.60-144 130.30-142.30L130.30-142.30L130.30-142.30Q132-140.60 132-136.80L132-136.80L132-98.40L132-98.40Q132-89.20 130.40-84.60L130.40-84.60L130.40-84.60Q128.80-80 124.40-73.80L124.40-73.80L94-32.60L94-7.20L94-7.20Q94-3.40 92.30-1.70L92.30-1.70L92.30-1.70Q90.60 0 86.80 0Z" fill="#000000"></path></g></g><style>text {
  font-size: 64px;
  font-family: Arial Black;
  dominant-baseline: central;
  text-anchor: middle;
}</style></svg>