<svg width="201.95999755859376px" height="294.4400146484375px" xmlns="http://www.w3.org/2000/svg" viewBox="149.02000122070314 -72.22000732421876 201.95999755859376 294.4400146484375" style="background: rgba(0, 0, 0, 0) none repeat scroll 0% 0%;" preserveAspectRatio="xMidYMid"><defs><filter id="editing-extrusion" x="-100%" y="-100%" width="300%" height="300%"><feFlood result="color1" flood-color="none"></feFlood><feConvolveMatrix order="1,1" divisor="1" kernelMatrix="1" in="SourceAlpha" result="extrude"></feConvolveMatrix><feComposite in="color1" in2="extrude" result="comp-extrude" operator="in"></feComposite><feOffset dx="0.5" dy="0.5" in="comp-extrude" result="offset-extrude"></feOffset><feMerge><feMergeNode in="offset-extrude"></feMergeNode><feMergeNode in="SourceGraphic"></feMergeNode></feMerge></filter></defs><g filter="url(#editing-extrusion)"><g transform="translate(183.99999713897705, 147)"><path d="M115.60 0L115.60 0L16.40 0L16.40 0Q12.60 0 10.90-1.70L10.90-1.70L10.90-1.70Q9.20-3.40 9.20-7.20L9.20-7.20L9.20-34L9.20-34Q9.20-37.80 10.40-40.70L10.40-40.70L10.40-40.70Q11.60-43.60 14.20-46.40L14.20-46.40L62.80-105.40L20-105.40L20-105.40Q16.20-105.40 14.50-107.10L14.50-107.10L14.50-107.10Q12.80-108.80 12.80-112.60L12.80-112.60L12.80-136.80L12.80-136.80Q12.80-140.60 14.50-142.30L14.50-142.30L14.50-142.30Q16.20-144 20-144L20-144L112-144L112-144Q115.80-144 117.50-142.30L117.50-142.30L117.50-142.30Q119.20-140.60 119.20-136.80L119.20-136.80L119.20-107L119.20-107Q119.20-103 118-100.10L118-100.10L118-100.10Q116.80-97.20 114.20-94.40L114.20-94.40L67.80-38.20L115.60-38.20L115.60-38.20Q119.40-38.20 121.10-36.50L121.10-36.50L121.10-36.50Q122.80-34.80 122.80-31L122.80-31L122.80-7.20L122.80-7.20Q122.80-3.40 121.10-1.70L121.10-1.70L121.10-1.70Q119.40 0 115.60 0Z" fill="#000000"></path></g></g><style>text {
  font-size: 64px;
  font-family: Arial Black;
  dominant-baseline: central;
  text-anchor: middle;
}</style></svg>