<svg width="139.75998535156248px" height="182.03999023437498px" xmlns="http://www.w3.org/2000/svg" viewBox="180.12000732421876 -16.01999511718749 139.75998535156248 182.03999023437498" style="background: rgba(0, 0, 0, 0) none repeat scroll 0% 0%;" preserveAspectRatio="xMidYMid"><defs><filter id="editing-extrusion" x="-100%" y="-100%" width="300%" height="300%"><feFlood result="color1" flood-color="none"></feFlood><feConvolveMatrix order="1,1" divisor="1" kernelMatrix="1" in="SourceAlpha" result="extrude"></feConvolveMatrix><feComposite in="color1" in2="extrude" result="comp-extrude" operator="in"></feComposite><feOffset dx="0.5" dy="0.5" in="comp-extrude" result="offset-extrude"></feOffset><feMerge><feMergeNode in="offset-extrude"></feMergeNode><feMergeNode in="SourceGraphic"></feMergeNode></feMerge></filter></defs><g filter="url(#editing-extrusion)"><g transform="translate(206.8799991607666, 118.7599983215332)"><path d="M62.13-75.01L22.52-75.01L22.52-63.72L10.01-63.72L10.01-75.01L10.01-75.01Q10.01-77.58 10.99-79.86L10.99-79.86L10.99-79.86Q11.96-82.15 13.67-83.83L13.67-83.83L13.67-83.83Q15.38-85.51 17.67-86.52L17.67-86.52L17.67-86.52Q19.96-87.52 22.52-87.52L22.52-87.52L62.13-87.52L62.13-87.52Q64.70-87.52 66.99-86.52L66.99-86.52L66.99-86.52Q69.27-85.51 70.95-83.83L70.95-83.83L70.95-83.83Q72.63-82.15 73.64-79.86L73.64-79.86L73.64-79.86Q74.65-77.58 74.65-75.01L74.65-75.01L74.65-59.02L74.65-59.02Q74.65-56.46 74.16-54.44L74.16-54.44L74.16-54.44Q73.67-52.43 72.60-50.81L72.60-50.81L72.60-50.81Q71.53-49.19 69.89-47.91L69.89-47.91L69.89-47.91Q68.24-46.63 65.86-45.47L65.86-45.47L22.52-25.15L22.52-12.51L63.72-12.51L63.72-23.74L76.23-23.74L76.23 0L10.01 0L10.01-23.01L10.01-23.01Q10.01-25.57 10.53-27.59L10.53-27.59L10.53-27.59Q11.05-29.60 12.08-31.19L12.08-31.19L12.08-31.19Q13.12-32.78 14.80-34.09L14.80-34.09L14.80-34.09Q16.48-35.40 18.74-36.50L18.74-36.50L62.13-56.88L62.13-75.01Z" fill="#000000"></path></g></g><style>text {
  font-size: 64px;
  font-family: Arial Black;
  dominant-baseline: central;
  text-anchor: middle;
}</style></svg>