<svg width="134.3599853515625px" height="182.03999023437498px" xmlns="http://www.w3.org/2000/svg" viewBox="182.82000732421875 -16.01999511718749 134.3599853515625 182.03999023437498" style="background: rgba(0, 0, 0, 0) none repeat scroll 0% 0%;" preserveAspectRatio="xMidYMid"><defs><filter id="editing-extrusion" x="-100%" y="-100%" width="300%" height="300%"><feFlood result="color1" flood-color="none"></feFlood><feConvolveMatrix order="1,1" divisor="1" kernelMatrix="1" in="SourceAlpha" result="extrude"></feConvolveMatrix><feComposite in="color1" in2="extrude" result="comp-extrude" operator="in"></feComposite><feOffset dx="0.5" dy="0.5" in="comp-extrude" result="offset-extrude"></feOffset><feMerge><feMergeNode in="offset-extrude"></feMergeNode><feMergeNode in="SourceGraphic"></feMergeNode></feMerge></filter></defs><g filter="url(#editing-extrusion)"><g transform="translate(209.49999952316284, 118.7599983215332)"><path d="M6.23-21.24L6.23-26.49L18.49-26.49L18.49-21.85L18.49-21.85Q18.49-16.91 20.69-14.59L20.69-14.59L20.69-14.59Q22.89-12.27 27.89-12.27L27.89-12.27L53.10-12.27L53.10-12.27Q58.11-12.27 60.30-14.59L60.30-14.59L60.30-14.59Q62.50-16.91 62.50-21.85L62.50-21.85L62.50-28.63L62.50-28.63Q62.50-33.63 60.30-35.89L60.30-35.89L60.30-35.89Q58.11-38.15 53.10-38.15L53.10-38.15L27.22-38.15L27.22-50.35L52.73-50.35L52.73-50.35Q57.31-50.54 59.30-52.83L59.30-52.83L59.30-52.83Q61.28-55.11 61.28-59.88L61.28-59.88L61.28-65.61L61.28-65.61Q61.28-70.62 59.05-72.94L59.05-72.94L59.05-72.94Q56.82-75.26 51.88-75.26L51.88-75.26L29.11-75.26L29.11-75.26Q24.17-75.26 21.97-72.94L21.97-72.94L21.97-72.94Q19.78-70.62 19.78-65.61L19.78-65.61L19.78-60.97L7.51-60.97L7.51-66.22L7.51-66.22Q7.51-87.52 28.75-87.52L28.75-87.52L52.25-87.52L52.25-87.52Q63.05-87.52 68.27-82.28L68.27-82.28L68.27-82.28Q73.49-77.03 73.49-66.22L73.49-66.22L73.49-64.64L73.49-64.64Q73.49-57.25 70.89-52.46L70.89-52.46L70.89-52.46Q68.30-47.67 63.35-45.35L63.35-45.35L63.35-45.35Q68.91-43.70 71.84-38.76L71.84-38.76L71.84-38.76Q74.77-33.81 74.77-25.63L74.77-25.63L74.77-21.24L74.77-21.24Q74.77 0 53.53 0L53.53 0L27.53 0L27.53 0Q6.23 0 6.23-21.24L6.23-21.24Z" fill="#000000"></path></g></g><style>text {
  font-size: 64px;
  font-family: Arial Black;
  dominant-baseline: central;
  text-anchor: middle;
}</style></svg>