<svg width="130.960009765625px" height="182.03999023437498px" xmlns="http://www.w3.org/2000/svg" viewBox="184.5199951171875 -16.01999511718749 130.960009765625 182.03999023437498" style="background: rgba(0, 0, 0, 0) none repeat scroll 0% 0%;" preserveAspectRatio="xMidYMid"><defs><filter id="editing-extrusion" x="-100%" y="-100%" width="300%" height="300%"><feFlood result="color1" flood-color="none"></feFlood><feConvolveMatrix order="1,1" divisor="1" kernelMatrix="1" in="SourceAlpha" result="extrude"></feConvolveMatrix><feComposite in="color1" in2="extrude" result="comp-extrude" operator="in"></feComposite><feOffset dx="0.5" dy="0.5" in="comp-extrude" result="offset-extrude"></feOffset><feMerge><feMergeNode in="offset-extrude"></feMergeNode><feMergeNode in="SourceGraphic"></feMergeNode></feMerge></filter></defs><g filter="url(#editing-extrusion)"><g transform="translate(210.74999952316284, 118.7599983215332)"><path d="M72.27-34.12L72.27-21.24L72.27-21.24Q72.08-10.56 66.89-5.28L66.89-5.28L66.89-5.28Q61.71 0 51.03 0L51.03 0L27.53 0L27.53 0Q6.23 0 6.23-21.24L6.23-21.24L6.23-26.49L18.49-26.49L18.49-21.85L18.49-21.85Q18.49-16.91 20.69-14.59L20.69-14.59L20.69-14.59Q22.89-12.27 27.89-12.27L27.89-12.27L50.60-12.27L50.60-12.27Q55.60-12.27 57.80-14.59L57.80-14.59L57.80-14.59Q60.00-16.91 60.00-21.85L60.00-21.85L60.00-33.63L60.00-33.63Q60.00-38.57 57.80-40.86L57.80-40.86L57.80-40.86Q55.60-43.15 50.60-43.15L50.60-43.15L8.73-43.15L8.73-87.52L70.01-87.52L70.01-75.01L21.24-75.01L21.24-55.36L51.03-55.36L51.03-55.36Q61.77-55.36 67.02-50.14L67.02-50.14L67.02-50.14Q72.27-44.92 72.27-34.12L72.27-34.12Z" fill="#000000"></path></g></g><style>text {
  font-size: 64px;
  font-family: Arial Black;
  dominant-baseline: central;
  text-anchor: middle;
}</style></svg>