<svg width="141.4800048828125px" height="182.03999023437498px" xmlns="http://www.w3.org/2000/svg" viewBox="179.25999755859374 -16.01999511718749 141.4800048828125 182.03999023437498" style="background: rgba(0, 0, 0, 0) none repeat scroll 0% 0%;" preserveAspectRatio="xMidYMid"><defs><filter id="editing-extrusion" x="-100%" y="-100%" width="300%" height="300%"><feFlood result="color1" flood-color="none"></feFlood><feConvolveMatrix order="1,1" divisor="1" kernelMatrix="1" in="SourceAlpha" result="extrude"></feConvolveMatrix><feComposite in="color1" in2="extrude" result="comp-extrude" operator="in"></feComposite><feOffset dx="0.5" dy="0.5" in="comp-extrude" result="offset-extrude"></feOffset><feMerge><feMergeNode in="offset-extrude"></feMergeNode><feMergeNode in="SourceGraphic"></feMergeNode></feMerge></filter></defs><g filter="url(#editing-extrusion)"><g transform="translate(206.2699966430664, 118.7599983215332)"><path d="M11.23-12.51L11.23-75.01L11.23-75.01Q11.23-77.58 12.21-79.86L12.21-79.86L12.21-79.86Q13.18-82.15 14.89-83.83L14.89-83.83L14.89-83.83Q16.60-85.51 18.89-86.52L18.89-86.52L18.89-86.52Q21.18-87.52 23.74-87.52L23.74-87.52L63.72-87.52L63.72-87.52Q66.28-87.52 68.57-86.52L68.57-86.52L68.57-86.52Q70.86-85.51 72.57-83.83L72.57-83.83L72.57-83.83Q74.28-82.15 75.26-79.86L75.26-79.86L75.26-79.86Q76.23-77.58 76.23-75.01L76.23-75.01L76.23-63.72L63.72-63.72L63.72-75.01L23.74-75.01L23.74-49.99L63.72-49.99L63.72-49.99Q66.28-49.99 68.57-49.01L68.57-49.01L68.57-49.01Q70.86-48.03 72.57-46.33L72.57-46.33L72.57-46.33Q74.28-44.62 75.26-42.33L75.26-42.33L75.26-42.33Q76.23-40.04 76.23-37.48L76.23-37.48L76.23-12.51L76.23-12.51Q76.23-9.95 75.26-7.66L75.26-7.66L75.26-7.66Q74.28-5.37 72.57-3.66L72.57-3.66L72.57-3.66Q70.86-1.95 68.57-0.98L68.57-0.98L68.57-0.98Q66.28 0 63.72 0L63.72 0L23.74 0L23.74 0Q21.18 0 18.89-0.98L18.89-0.98L18.89-0.98Q16.60-1.95 14.89-3.66L14.89-3.66L14.89-3.66Q13.18-5.37 12.21-7.66L12.21-7.66L12.21-7.66Q11.23-9.95 11.23-12.51L11.23-12.51ZM63.72-37.48L23.74-37.48L23.74-12.51L63.72-12.51L63.72-37.48Z" fill="#000000"></path></g></g><style>text {
  font-size: 64px;
  font-family: Arial Black;
  dominant-baseline: central;
  text-anchor: middle;
}</style></svg>