<svg width="139.39999999999998px" height="182.03999023437498px" xmlns="http://www.w3.org/2000/svg" viewBox="180.3 -16.01999511718749 139.39999999999998 182.03999023437498" style="background: rgba(0, 0, 0, 0) none repeat scroll 0% 0%;" preserveAspectRatio="xMidYMid"><defs><filter id="editing-extrusion" x="-100%" y="-100%" width="300%" height="300%"><feFlood result="color1" flood-color="none"></feFlood><feConvolveMatrix order="1,1" divisor="1" kernelMatrix="1" in="SourceAlpha" result="extrude"></feConvolveMatrix><feComposite in="color1" in2="extrude" result="comp-extrude" operator="in"></feComposite><feOffset dx="0.5" dy="0.5" in="comp-extrude" result="offset-extrude"></feOffset><feMerge><feMergeNode in="offset-extrude"></feMergeNode><feMergeNode in="SourceGraphic"></feMergeNode></feMerge></filter></defs><g filter="url(#editing-extrusion)"><g transform="translate(207.00000381469727, 118.7599983215332)"><path d="M30.76-50.35L55.24-50.35L55.24-50.35Q59.81-50.54 61.77-52.83L61.77-52.83L61.77-52.83Q63.72-55.11 63.72-59.88L63.72-59.88L63.72-65.61L63.72-65.61Q63.72-70.62 61.52-72.94L61.52-72.94L61.52-72.94Q59.33-75.26 54.38-75.26L54.38-75.26L31.62-75.26L31.62-75.26Q26.67-75.26 24.48-72.94L24.48-72.94L24.48-72.94Q22.28-70.62 22.28-65.61L22.28-65.61L22.28-59.88L22.28-59.88Q22.28-55.11 24.26-52.83L24.26-52.83L24.26-52.83Q26.25-50.54 30.76-50.35L30.76-50.35ZM30.40-12.27L55.60-12.27L55.60-12.27Q60.61-12.27 62.81-14.59L62.81-14.59L62.81-14.59Q65.00-16.91 65.00-21.85L65.00-21.85L65.00-28.63L65.00-28.63Q65.00-33.63 62.81-35.89L62.81-35.89L62.81-35.89Q60.61-38.15 55.60-38.15L55.60-38.15L30.40-38.15L30.40-38.15Q25.39-38.15 23.19-35.89L23.19-35.89L23.19-35.89Q21.00-33.63 21.00-28.63L21.00-28.63L21.00-21.85L21.00-21.85Q21.00-16.91 23.19-14.59L23.19-14.59L23.19-14.59Q25.39-12.27 30.40-12.27L30.40-12.27ZM56.03 0L30.03 0L30.03 0Q8.73 0 8.73-21.24L8.73-21.24L8.73-25.63L8.73-25.63Q8.73-33.81 11.66-38.76L11.66-38.76L11.66-38.76Q14.59-43.70 20.14-45.35L20.14-45.35L20.14-45.35Q15.20-47.67 12.60-52.46L12.60-52.46L12.60-52.46Q10.01-57.25 10.01-64.64L10.01-64.64L10.01-66.22L10.01-66.22Q10.01-87.52 31.25-87.52L31.25-87.52L54.75-87.52L54.75-87.52Q75.99-87.52 75.99-66.22L75.99-66.22L75.99-64.64L75.99-64.64Q75.99-57.25 73.39-52.46L73.39-52.46L73.39-52.46Q70.80-47.67 65.86-45.35L65.86-45.35L65.86-45.35Q71.41-43.70 74.34-38.76L74.34-38.76L74.34-38.76Q77.27-33.81 77.27-25.63L77.27-25.63L77.27-21.24L77.27-21.24Q77.27 0 56.03 0L56.03 0Z" fill="#000000"></path></g></g><style>text {
  font-size: 64px;
  font-family: Arial Black;
  dominant-baseline: central;
  text-anchor: middle;
}</style></svg>