<svg width="141.95999755859373px" height="182.03999023437498px" xmlns="http://www.w3.org/2000/svg" viewBox="179.02000122070314 -16.01999511718749 141.95999755859373 182.03999023437498" style="background: rgba(0, 0, 0, 0) none repeat scroll 0% 0%;" preserveAspectRatio="xMidYMid"><defs><filter id="editing-extrusion" x="-100%" y="-100%" width="300%" height="300%"><feFlood result="color1" flood-color="none"></feFlood><feConvolveMatrix order="1,1" divisor="1" kernelMatrix="1" in="SourceAlpha" result="extrude"></feConvolveMatrix><feComposite in="color1" in2="extrude" result="comp-extrude" operator="in"></feComposite><feOffset dx="0.5" dy="0.5" in="comp-extrude" result="offset-extrude"></feOffset><feMerge><feMergeNode in="offset-extrude"></feMergeNode><feMergeNode in="SourceGraphic"></feMergeNode></feMerge></filter></defs><g filter="url(#editing-extrusion)"><g transform="translate(204.19500350952148, 118.7599983215332)"><path d="M68.24-45.65L68.24-45.65L68.24-45.65Q70.98-44.80 73.24-43.21L73.24-43.21L73.24-43.21Q75.50-41.63 77.09-39.15L77.09-39.15L77.09-39.15Q78.67-36.68 79.53-33.33L79.53-33.33L79.53-33.33Q80.38-29.97 80.38-25.63L80.38-25.63L80.38-21.24L80.38-21.24Q80.38 0 59.14 0L59.14 0L11.23 0L11.23-87.52L56.64-87.52L56.64-87.52Q77.88-87.52 77.88-66.22L77.88-66.22L77.88-64.64L77.88-64.64Q77.88-57.25 75.53-52.58L75.53-52.58L75.53-52.58Q73.18-47.91 68.24-45.65ZM58.78-38.15L23.50-38.15L23.50-12.27L58.78-12.27L58.78-12.27Q63.72-12.27 65.92-14.59L65.92-14.59L65.92-14.59Q68.12-16.91 68.12-21.85L68.12-21.85L68.12-28.63L68.12-28.63Q68.12-33.63 65.92-35.89L65.92-35.89L65.92-35.89Q63.72-38.15 58.78-38.15L58.78-38.15ZM56.27-75.26L23.50-75.26L23.50-50.35L57.13-50.35L57.13-50.35Q61.65-50.54 63.63-52.83L63.63-52.83L63.63-52.83Q65.61-55.11 65.61-59.88L65.61-59.88L65.61-65.61L65.61-65.61Q65.61-70.62 63.42-72.94L63.42-72.94L63.42-72.94Q61.22-75.26 56.27-75.26L56.27-75.26Z" fill="#000000"></path></g></g><style>text {
  font-size: 64px;
  font-family: Arial Black;
  dominant-baseline: central;
  text-anchor: middle;
}</style></svg>