<svg width="151.84000244140626px" height="182.03999023437498px" xmlns="http://www.w3.org/2000/svg" viewBox="174.0799987792969 -16.01999511718749 151.84000244140626 182.03999023437498" style="background: rgba(0, 0, 0, 0) none repeat scroll 0% 0%;" preserveAspectRatio="xMidYMid"><defs><filter id="editing-extrusion" x="-100%" y="-100%" width="300%" height="300%"><feFlood result="color1" flood-color="none"></feFlood><feConvolveMatrix order="1,1" divisor="1" kernelMatrix="1" in="SourceAlpha" result="extrude"></feConvolveMatrix><feComposite in="color1" in2="extrude" result="comp-extrude" operator="in"></feComposite><feOffset dx="0.5" dy="0.5" in="comp-extrude" result="offset-extrude"></feOffset><feMerge><feMergeNode in="offset-extrude"></feMergeNode><feMergeNode in="SourceGraphic"></feMergeNode></feMerge></filter></defs><g filter="url(#editing-extrusion)"><g transform="translate(201.20499420166016, 118.7599983215332)"><path d="M23.74-12.51L55.73-12.51L55.73-12.51Q64.45-12.51 69.15-17.21L69.15-17.21L69.15-17.21Q73.85-21.91 73.85-30.64L73.85-30.64L73.85-56.88L73.85-56.88Q73.85-61.16 72.63-64.51L72.63-64.51L72.63-64.51Q71.41-67.87 69.06-70.22L69.06-70.22L69.06-70.22Q66.71-72.57 63.35-73.79L63.35-73.79L63.35-73.79Q60.00-75.01 55.73-75.01L55.73-75.01L23.74-75.01L23.74-12.51ZM55.73 0L11.23 0L11.23-87.52L55.73-87.52L55.73-87.52Q62.74-87.52 68.39-85.36L68.39-85.36L68.39-85.36Q74.04-83.19 78.03-79.19L78.03-79.19L78.03-79.19Q82.03-75.20 84.20-69.52L84.20-69.52L84.20-69.52Q86.36-63.84 86.36-56.88L86.36-56.88L86.36-30.64L86.36-30.64Q86.36-23.68 84.20-18.01L84.20-18.01L84.20-18.01Q82.03-12.33 78.03-8.33L78.03-8.33L78.03-8.33Q74.04-4.33 68.39-2.17L68.39-2.17L68.39-2.17Q62.74 0 55.73 0L55.73 0Z" fill="#000000"></path></g></g><style>text {
  font-size: 64px;
  font-family: Arial Black;
  dominant-baseline: central;
  text-anchor: middle;
}</style></svg>