<svg width="131.75999755859374px" height="182.03999023437498px" xmlns="http://www.w3.org/2000/svg" viewBox="184.12000122070313 -16.01999511718749 131.75999755859374 182.03999023437498" style="background: rgba(0, 0, 0, 0) none repeat scroll 0% 0%;" preserveAspectRatio="xMidYMid"><defs><filter id="editing-extrusion" x="-100%" y="-100%" width="300%" height="300%"><feFlood result="color1" flood-color="none"></feFlood><feConvolveMatrix order="1,1" divisor="1" kernelMatrix="1" in="SourceAlpha" result="extrude"></feConvolveMatrix><feComposite in="color1" in2="extrude" result="comp-extrude" operator="in"></feComposite><feOffset dx="0.5" dy="0.5" in="comp-extrude" result="offset-extrude"></feOffset><feMerge><feMergeNode in="offset-extrude"></feMergeNode><feMergeNode in="SourceGraphic"></feMergeNode></feMerge></filter></defs><g filter="url(#editing-extrusion)"><g transform="translate(211.05999946594238, 118.7599983215332)"><path d="M8.73-12.51L8.73-27.53L21.24-27.53L21.24-12.51L56.64-12.51L56.64-87.52L69.15-87.52L69.15-12.51L69.15-12.51Q69.15-9.95 68.15-7.66L68.15-7.66L68.15-7.66Q67.14-5.37 65.46-3.66L65.46-3.66L65.46-3.66Q63.78-1.95 61.49-0.98L61.49-0.98L61.49-0.98Q59.20 0 56.64 0L56.64 0L21.24 0L21.24 0Q18.68 0 16.39-0.98L16.39-0.98L16.39-0.98Q14.10-1.95 12.42-3.66L12.42-3.66L12.42-3.66Q10.74-5.37 9.74-7.66L9.74-7.66L9.74-7.66Q8.73-9.95 8.73-12.51L8.73-12.51Z" fill="#000000"></path></g></g><style>text {
  font-size: 64px;
  font-family: Arial Black;
  dominant-baseline: central;
  text-anchor: middle;
}</style></svg>