<svg width="144.88001708984376px" height="182.03999023437498px" xmlns="http://www.w3.org/2000/svg" viewBox="177.55999145507812 -16.01999511718749 144.88001708984376 182.03999023437498" style="background: rgba(0, 0, 0, 0) none repeat scroll 0% 0%;" preserveAspectRatio="xMidYMid"><defs><filter id="editing-extrusion" x="-100%" y="-100%" width="300%" height="300%"><feFlood result="color1" flood-color="none"></feFlood><feConvolveMatrix order="1,1" divisor="1" kernelMatrix="1" in="SourceAlpha" result="extrude"></feConvolveMatrix><feComposite in="color1" in2="extrude" result="comp-extrude" operator="in"></feComposite><feOffset dx="0.5" dy="0.5" in="comp-extrude" result="offset-extrude"></feOffset><feMerge><feMergeNode in="offset-extrude"></feMergeNode><feMergeNode in="SourceGraphic"></feMergeNode></feMerge></filter></defs><g filter="url(#editing-extrusion)"><g transform="translate(203.76499938964844, 118.7599983215332)"><path d="M80.38-66.22L80.38-56.27L80.38-56.27Q80.38-37.96 64.76-35.40L64.76-35.40L81.24 0L67.38 0L51.15-34.97L23.74-34.97L23.74 0L11.23 0L11.23-87.52L59.14-87.52L59.14-87.52Q80.38-87.52 80.38-66.22L80.38-66.22ZM23.74-75.01L23.74-47.49L58.47-47.49L58.47-47.49Q63.48-47.49 65.67-49.68L65.67-49.68L65.67-49.68Q67.87-51.88 67.87-56.88L67.87-56.88L67.87-65.61L67.87-65.61Q67.87-70.62 65.67-72.81L65.67-72.81L65.67-72.81Q63.48-75.01 58.47-75.01L58.47-75.01L23.74-75.01Z" fill="#000000"></path></g></g><style>text {
  font-size: 64px;
  font-family: Arial Black;
  dominant-baseline: central;
  text-anchor: middle;
}</style></svg>