<svg width="144.88001708984376px" height="182.03999023437498px" xmlns="http://www.w3.org/2000/svg" viewBox="177.55999145507812 -16.01999511718749 144.88001708984376 182.03999023437498" style="background: rgba(0, 0, 0, 0) none repeat scroll 0% 0%;" preserveAspectRatio="xMidYMid"><defs><filter id="editing-extrusion" x="-100%" y="-100%" width="300%" height="300%"><feFlood result="color1" flood-color="none"></feFlood><feConvolveMatrix order="1,1" divisor="1" kernelMatrix="1" in="SourceAlpha" result="extrude"></feConvolveMatrix><feComposite in="color1" in2="extrude" result="comp-extrude" operator="in"></feComposite><feOffset dx="0.5" dy="0.5" in="comp-extrude" result="offset-extrude"></feOffset><feMerge><feMergeNode in="offset-extrude"></feMergeNode><feMergeNode in="SourceGraphic"></feMergeNode></feMerge></filter></defs><g filter="url(#editing-extrusion)"><g transform="translate(205.62499809265137, 118.7599983215332)"><path d="M66.22-37.48L23.74-37.48L23.74-37.48Q21.18-37.48 18.89-38.48L18.89-38.48L18.89-38.48Q16.60-39.49 14.89-41.17L14.89-41.17L14.89-41.17Q13.18-42.85 12.21-45.14L12.21-45.14L12.21-45.14Q11.23-47.42 11.23-49.99L11.23-49.99L11.23-75.01L11.23-75.01Q11.23-77.58 12.21-79.86L12.21-79.86L12.21-79.86Q13.18-82.15 14.89-83.83L14.89-83.83L14.89-83.83Q16.60-85.51 18.89-86.52L18.89-86.52L18.89-86.52Q21.18-87.52 23.74-87.52L23.74-87.52L66.22-87.52L66.22-87.52Q68.79-87.52 71.08-86.52L71.08-86.52L71.08-86.52Q73.36-85.51 75.07-83.83L75.07-83.83L75.07-83.83Q76.78-82.15 77.76-79.86L77.76-79.86L77.76-79.86Q78.74-77.58 78.74-75.01L78.74-75.01L78.74-63.72L66.22-63.72L66.22-75.01L23.74-75.01L23.74-49.99L66.22-49.99L66.22-49.99Q68.79-49.99 71.08-49.01L71.08-49.01L71.08-49.01Q73.36-48.03 75.07-46.33L75.07-46.33L75.07-46.33Q76.78-44.62 77.76-42.33L77.76-42.33L77.76-42.33Q78.74-40.04 78.74-37.48L78.74-37.48L78.74-12.51L78.74-12.51Q78.74-9.95 77.76-7.66L77.76-7.66L77.76-7.66Q76.78-5.37 75.07-3.66L75.07-3.66L75.07-3.66Q73.36-1.95 71.08-0.98L71.08-0.98L71.08-0.98Q68.79 0 66.22 0L66.22 0L22.52 0L22.52 0Q19.96 0 17.67-0.98L17.67-0.98L17.67-0.98Q15.38-1.95 13.67-3.66L13.67-3.66L13.67-3.66Q11.96-5.37 10.99-7.66L10.99-7.66L10.99-7.66Q10.01-9.95 10.01-12.51L10.01-12.51L10.01-23.74L22.52-23.74L22.52-12.51L66.22-12.51L66.22-37.48Z" fill="#000000"></path></g></g><style>text {
  font-size: 64px;
  font-family: Arial Black;
  dominant-baseline: central;
  text-anchor: middle;
}</style></svg>