<svg width="155.03999023437498px" height="182.03999023437498px" xmlns="http://www.w3.org/2000/svg" viewBox="172.48000488281252 -16.01999511718749 155.03999023437498 182.03999023437498" style="background: rgba(0, 0, 0, 0) none repeat scroll 0% 0%;" preserveAspectRatio="xMidYMid"><defs><filter id="editing-extrusion" x="-100%" y="-100%" width="300%" height="300%"><feFlood result="color1" flood-color="none"></feFlood><feConvolveMatrix order="1,1" divisor="1" kernelMatrix="1" in="SourceAlpha" result="extrude"></feConvolveMatrix><feComposite in="color1" in2="extrude" result="comp-extrude" operator="in"></feComposite><feOffset dx="0.5" dy="0.5" in="comp-extrude" result="offset-extrude"></feOffset><feMerge><feMergeNode in="offset-extrude"></feMergeNode><feMergeNode in="SourceGraphic"></feMergeNode></feMerge></filter></defs><g filter="url(#editing-extrusion)"><g transform="translate(201.26500701904297, 118.7599983215332)"><path d="M11.23-12.51L11.23-87.52L23.74-87.52L23.74-12.51L73.73-12.51L73.73-87.52L86.24-87.52L86.24-12.51L86.24-12.51Q86.24-9.95 85.27-7.66L85.27-7.66L85.27-7.66Q84.29-5.37 82.58-3.66L82.58-3.66L82.58-3.66Q80.87-1.95 78.58-0.98L78.58-0.98L78.58-0.98Q76.29 0 73.73 0L73.73 0L23.74 0L23.74 0Q21.18 0 18.89-0.98L18.89-0.98L18.89-0.98Q16.60-1.95 14.89-3.66L14.89-3.66L14.89-3.66Q13.18-5.37 12.21-7.66L12.21-7.66L12.21-7.66Q11.23-9.95 11.23-12.51L11.23-12.51Z" fill="#000000"></path></g></g><style>text {
  font-size: 64px;
  font-family: Arial Black;
  dominant-baseline: central;
  text-anchor: middle;
}</style></svg>